<svg viewBox="-16 -32 880 192" width="880" height="192" xmlns="http://www.w3.org/2000/svg"><desc>Generated with https://github.com/Platane/snk</desc><style>:root{--cb:#1b1f230a;--cs:green;--ce:#144d2a;--c0:#144d2a;--c1:#1f7a3d;--c2:#2ecc71;--c3:#7bed9f;--c4:#c7f9cc}.c{shape-rendering:geometricPrecision;fill:var(--ce);stroke-width:1px;stroke:var(--cb);animation:none 21900ms linear infinite;width:12px;height:12px}@keyframes c0{0.45%{fill:var(--c1)}0.47%,100%{fill:var(--ce)}}.c.c0{fill:var(--c1);animation-name:c0}@keyframes c1{0.9%{fill:var(--c1)}0.92%,100%{fill:var(--ce)}}.c.c1{fill:var(--c1);animation-name:c1}@keyframes c2{3.19%{fill:var(--c1)}3.21%,100%{fill:var(--ce)}}.c.c2{fill:var(--c1);animation-name:c2}@keyframes c3{4.1%{fill:var(--c1)}4.12%,100%{fill:var(--ce)}}.c.c3{fill:var(--c1);animation-name:c3}@keyframes c4{8.67%{fill:var(--c1)}8.69%,100%{fill:var(--ce)}}.c.c4{fill:var(--c1);animation-name:c4}@keyframes c5{9.58%{fill:var(--c1)}9.6%,100%{fill:var(--ce)}}.c.c5{fill:var(--c1);animation-name:c5}@keyframes c6{10.95%{fill:var(--c1)}10.97%,100%{fill:var(--ce)}}.c.c6{fill:var(--c1);animation-name:c6}@keyframes c7{11.41%{fill:var(--c1)}11.43%,100%{fill:var(--ce)}}.c.c7{fill:var(--c1);animation-name:c7}@keyframes c8{13.69%{fill:var(--c1)}13.71%,100%{fill:var(--ce)}}.c.c8{fill:var(--c1);animation-name:c8}@keyframes c9{16.43%{fill:var(--c1)}16.45%,100%{fill:var(--ce)}}.c.c9{fill:var(--c1);animation-name:c9}@keyframes ca{16.88%{fill:var(--c1)}16.9%,100%{fill:var(--ce)}}.c.ca{fill:var(--c1);animation-name:ca}@keyframes cb{19.62%{fill:var(--c1)}19.64%,100%{fill:var(--ce)}}.c.cb{fill:var(--c1);animation-name:cb}@keyframes cc{19.17%{fill:var(--c1)}19.19%,100%{fill:var(--ce)}}.c.cc{fill:var(--c1);animation-name:cc}@keyframes cd{18.71%{fill:var(--c1)}18.73%,100%{fill:var(--ce)}}.c.cd{fill:var(--c1);animation-name:cd}@keyframes ce{50.67%{fill:var(--c1)}50.69%,100%{fill:var(--ce)}}.c.ce{fill:var(--c1);animation-name:ce}@keyframes cf{26.93%{fill:var(--c1)}26.95%,100%{fill:var(--ce)}}.c.cf{fill:var(--c1);animation-name:cf}@keyframes cg{27.39%{fill:var(--c1)}27.41%,100%{fill:var(--ce)}}.c.cg{fill:var(--c1);animation-name:cg}@keyframes ch{27.84%{fill:var(--c1)}27.86%,100%{fill:var(--ce)}}.c.ch{fill:var(--c1);animation-name:ch}@keyframes ci{28.3%{fill:var(--c1)}28.32%,100%{fill:var(--ce)}}.c.ci{fill:var(--c1);animation-name:ci}@keyframes cj{77.16%{fill:var(--c4)}77.18%,100%{fill:var(--ce)}}.c.cj{fill:var(--c4);animation-name:cj}@keyframes ck{48.85%{fill:var(--c1)}48.87%,100%{fill:var(--ce)}}.c.ck{fill:var(--c1);animation-name:ck}@keyframes cl{60.72%{fill:var(--c2)}60.74%,100%{fill:var(--ce)}}.c.cl{fill:var(--c2);animation-name:cl}@keyframes cm{61.18%{fill:var(--c2)}61.2%,100%{fill:var(--ce)}}.c.cm{fill:var(--c2);animation-name:cm}@keyframes cn{61.63%{fill:var(--c2)}61.65%,100%{fill:var(--ce)}}.c.cn{fill:var(--c2);animation-name:cn}@keyframes co{31.04%{fill:var(--c1)}31.06%,100%{fill:var(--ce)}}.c.co{fill:var(--c1);animation-name:co}@keyframes cp{30.58%{fill:var(--c1)}30.6%,100%{fill:var(--ce)}}.c.cp{fill:var(--c1);animation-name:cp}@keyframes cq{48.39%{fill:var(--c1)}48.41%,100%{fill:var(--ce)}}.c.cq{fill:var(--c1);animation-name:cq}@keyframes cr{59.81%{fill:var(--c1)}59.83%,100%{fill:var(--ce)}}.c.cr{fill:var(--c1);animation-name:cr}@keyframes cs{60.26%{fill:var(--c1)}60.28%,100%{fill:var(--ce)}}.c.cs{fill:var(--c1);animation-name:cs}@keyframes ct{75.33%{fill:var(--c4)}75.35%,100%{fill:var(--ce)}}.c.ct{fill:var(--c4);animation-name:ct}@keyframes cu{31.95%{fill:var(--c1)}31.97%,100%{fill:var(--ce)}}.c.cu{fill:var(--c1);animation-name:cu}@keyframes cv{59.35%{fill:var(--c1)}59.37%,100%{fill:var(--ce)}}.c.cv{fill:var(--c1);animation-name:cv}@keyframes cw{73.51%{fill:var(--c3)}73.53%,100%{fill:var(--ce)}}.c.cw{fill:var(--c3);animation-name:cw}@keyframes cx{55.7%{fill:var(--c1)}55.72%,100%{fill:var(--ce)}}.c.cx{fill:var(--c1);animation-name:cx}@keyframes cy{32.41%{fill:var(--c1)}32.43%,100%{fill:var(--ce)}}.c.cy{fill:var(--c1);animation-name:cy}@keyframes cz{72.59%{fill:var(--c3)}72.61%,100%{fill:var(--ce)}}.c.cz{fill:var(--c3);animation-name:cz}@keyframes c10{73.96%{fill:var(--c4)}73.98%,100%{fill:var(--ce)}}.c.c10{fill:var(--c4);animation-name:c10}@keyframes c11{33.32%{fill:var(--c1)}33.34%,100%{fill:var(--ce)}}.c.c11{fill:var(--c1);animation-name:c11}@keyframes c12{32.87%{fill:var(--c1)}32.89%,100%{fill:var(--ce)}}.c.c12{fill:var(--c1);animation-name:c12}@keyframes c13{40.63%{fill:var(--c1)}40.65%,100%{fill:var(--ce)}}.c.c13{fill:var(--c1);animation-name:c13}@keyframes c14{41.54%{fill:var(--c1)}41.56%,100%{fill:var(--ce)}}.c.c14{fill:var(--c1);animation-name:c14}@keyframes c15{34.24%{fill:var(--c1)}34.26%,100%{fill:var(--ce)}}.c.c15{fill:var(--c1);animation-name:c15}@keyframes c16{33.78%{fill:var(--c1)}33.8%,100%{fill:var(--ce)}}.c.c16{fill:var(--c1);animation-name:c16}@keyframes c17{40.17%{fill:var(--c1)}40.19%,100%{fill:var(--ce)}}.c.c17{fill:var(--c1);animation-name:c17}@keyframes c18{39.72%{fill:var(--c1)}39.74%,100%{fill:var(--ce)}}.c.c18{fill:var(--c1);animation-name:c18}@keyframes c19{42%{fill:var(--c1)}42.02%,100%{fill:var(--ce)}}.c.c19{fill:var(--c1);animation-name:c19}@keyframes c1a{35.15%{fill:var(--c1)}35.17%,100%{fill:var(--ce)}}.c.c1a{fill:var(--c1);animation-name:c1a}@keyframes c1b{34.69%{fill:var(--c1)}34.71%,100%{fill:var(--ce)}}.c.c1b{fill:var(--c1);animation-name:c1b}@keyframes c1c{39.26%{fill:var(--c1)}39.28%,100%{fill:var(--ce)}}.c.c1c{fill:var(--c1);animation-name:c1c}@keyframes c1d{68.94%{fill:var(--c2)}68.96%,100%{fill:var(--ce)}}.c.c1d{fill:var(--c2);animation-name:c1d}@keyframes c1e{35.61%{fill:var(--c1)}35.63%,100%{fill:var(--ce)}}.c.c1e{fill:var(--c1);animation-name:c1e}@keyframes c1f{65.29%{fill:var(--c2)}65.31%,100%{fill:var(--ce)}}.c.c1f{fill:var(--c2);animation-name:c1f}@keyframes c1g{64.83%{fill:var(--c2)}64.85%,100%{fill:var(--ce)}}.c.c1g{fill:var(--c2);animation-name:c1g}@keyframes c1h{38.8%{fill:var(--c1)}38.82%,100%{fill:var(--ce)}}.c.c1h{fill:var(--c1);animation-name:c1h}@keyframes c1i{43.83%{fill:var(--c1)}43.85%,100%{fill:var(--ce)}}.c.c1i{fill:var(--c1);animation-name:c1i}@keyframes c1j{36.06%{fill:var(--c1)}36.08%,100%{fill:var(--ce)}}.c.c1j{fill:var(--c1);animation-name:c1j}@keyframes c1k{36.52%{fill:var(--c1)}36.54%,100%{fill:var(--ce)}}.c.c1k{fill:var(--c1);animation-name:c1k}@keyframes c1l{67.57%{fill:var(--c2)}67.59%,100%{fill:var(--ce)}}.c.c1l{fill:var(--c2);animation-name:c1l}@keyframes c1m{44.28%{fill:var(--c1)}44.3%,100%{fill:var(--ce)}}.c.c1m{fill:var(--c1);animation-name:c1m}.u{transform-origin:0 0;transform:scale(0,1);animation:none linear 21900ms infinite}@keyframes u0{0.45%{transform:scale(0.000,1)}0.47%,0.9%{transform:scale(0.021,1)}0.92%,3.19%{transform:scale(0.043,1)}3.21%,4.1%{transform:scale(0.064,1)}4.12%,8.67%{transform:scale(0.085,1)}8.69%,9.58%{transform:scale(0.106,1)}9.6%,10.95%{transform:scale(0.128,1)}10.97%,11.41%{transform:scale(0.149,1)}11.43%,13.69%{transform:scale(0.170,1)}13.71%,16.43%{transform:scale(0.191,1)}16.45%,16.88%{transform:scale(0.213,1)}16.9%,18.71%{transform:scale(0.234,1)}18.73%,19.17%{transform:scale(0.255,1)}19.19%,19.62%{transform:scale(0.277,1)}19.64%,26.93%{transform:scale(0.298,1)}26.95%,27.39%{transform:scale(0.319,1)}27.41%,27.84%{transform:scale(0.340,1)}27.86%,28.3%{transform:scale(0.362,1)}28.32%,30.58%{transform:scale(0.383,1)}30.6%,31.04%{transform:scale(0.404,1)}31.06%,31.95%{transform:scale(0.426,1)}31.97%,32.41%{transform:scale(0.447,1)}32.43%,32.87%{transform:scale(0.468,1)}32.89%,33.32%{transform:scale(0.489,1)}33.34%,33.78%{transform:scale(0.511,1)}33.8%,34.24%{transform:scale(0.532,1)}34.26%,34.69%{transform:scale(0.553,1)}34.71%,35.15%{transform:scale(0.574,1)}35.17%,35.61%{transform:scale(0.596,1)}35.63%,36.06%{transform:scale(0.617,1)}36.08%,36.52%{transform:scale(0.638,1)}36.54%,38.8%{transform:scale(0.660,1)}38.82%,39.26%{transform:scale(0.681,1)}39.28%,39.72%{transform:scale(0.702,1)}39.74%,40.17%{transform:scale(0.723,1)}40.19%,40.63%{transform:scale(0.745,1)}40.65%,41.54%{transform:scale(0.766,1)}41.56%,42%{transform:scale(0.787,1)}42.02%,43.83%{transform:scale(0.809,1)}43.85%,44.28%{transform:scale(0.830,1)}44.3%,48.39%{transform:scale(0.851,1)}48.41%,48.85%{transform:scale(0.872,1)}48.87%,50.67%{transform:scale(0.894,1)}50.69%,55.7%{transform:scale(0.915,1)}55.72%,59.35%{transform:scale(0.936,1)}59.37%,59.81%{transform:scale(0.957,1)}59.83%,60.26%{transform:scale(0.979,1)}60.28%,100%{transform:scale(1.000,1)}}.u.u0{fill:var(--c1);animation-name:u0;transform-origin:0.0px 0}@keyframes u1{60.72%{transform:scale(0.000,1)}60.74%,61.18%{transform:scale(0.143,1)}61.2%,61.63%{transform:scale(0.286,1)}61.65%,64.83%{transform:scale(0.429,1)}64.85%,65.29%{transform:scale(0.571,1)}65.31%,67.57%{transform:scale(0.714,1)}67.59%,68.94%{transform:scale(0.857,1)}68.96%,100%{transform:scale(1.000,1)}}.u.u1{fill:var(--c2);animation-name:u1;transform-origin:675.5px 0}@keyframes u2{72.59%{transform:scale(0.000,1)}72.61%,73.51%{transform:scale(0.500,1)}73.53%,100%{transform:scale(1.000,1)}}.u.u2{fill:var(--c3);animation-name:u2;transform-origin:776.1px 0}@keyframes u3{73.96%{transform:scale(0.000,1)}73.98%,75.33%{transform:scale(0.333,1)}75.35%,77.16%{transform:scale(0.667,1)}77.18%,100%{transform:scale(1.000,1)}}.u.u3{fill:var(--c4);animation-name:u3;transform-origin:804.9px 0}.s{shape-rendering:geometricPrecision;fill:var(--cs);animation:none linear 21900ms infinite}@keyframes s0{0%,99.54%{transform:translate(0px,-16px)}0.91%{transform:translate(0px,16px)}1.83%{transform:translate(32px,16px)}3.2%{transform:translate(32px,64px)}3.65%{transform:translate(48px,64px)}4.11%{transform:translate(48px,80px)}12.33%{transform:translate(336px,80px)}13.7%{transform:translate(336px,32px)}15.98%{transform:translate(416px,32px)}16.44%{transform:translate(416px,48px)}18.26%{transform:translate(480px,48px)}19.18%{transform:translate(480px,16px)}19.63%{transform:translate(464px,16px)}20.09%{transform:translate(464px,0px)}26.94%{transform:translate(704px,0px)}28.31%{transform:translate(704px,48px)}28.77%{transform:translate(688px,48px)}29.68%{transform:translate(688px,80px)}30.59%{transform:translate(720px,80px)}31.05%{transform:translate(720px,64px)}31.51%{transform:translate(736px,64px)}31.96%{transform:translate(736px,48px)}32.88%{transform:translate(768px,48px)}33.33%,74.43%{transform:translate(768px,32px)}33.79%,56.62%{transform:translate(784px,32px)}34.25%{transform:translate(784px,16px)}34.7%{transform:translate(800px,16px)}35.16%{transform:translate(800px,0px)}36.07%{transform:translate(832px,0px)}37.44%{transform:translate(832px,48px)}37.9%,64.38%{transform:translate(816px,48px)}38.81%,43.38%{transform:translate(816px,80px)}39.73%,42.47%{transform:translate(784px,80px)}40.18%{transform:translate(784px,64px)}40.64%{transform:translate(768px,64px)}41.55%{transform:translate(768px,96px)}42.01%,46.58%,69.41%{transform:translate(784px,96px)}43.84%{transform:translate(816px,96px)}44.29%{transform:translate(832px,96px)}44.75%{transform:translate(832px,112px)}46.12%{transform:translate(784px,112px)}50.68%{transform:translate(640px,96px)}51.14%{transform:translate(640px,80px)}54.34%{transform:translate(752px,80px)}55.71%{transform:translate(752px,32px)}57.99%{transform:translate(784px,-16px)}58.9%{transform:translate(752px,-16px)}59.36%,73.06%{transform:translate(752px,0px)}59.82%{transform:translate(736px,0px)}60.27%{transform:translate(736px,16px)}60.73%{transform:translate(720px,16px)}61.64%{transform:translate(720px,48px)}65.3%{transform:translate(816px,16px)}65.75%{transform:translate(832px,16px)}67.58%{transform:translate(832px,80px)}68.49%{transform:translate(800px,80px)}68.95%{transform:translate(800px,96px)}72.15%{transform:translate(784px,0px)}73.52%{transform:translate(752px,16px)}73.97%{transform:translate(768px,16px)}76.26%{transform:translate(704px,32px)}77.17%{transform:translate(704px,64px)}94.98%{transform:translate(80px,64px)}96.35%{transform:translate(80px,16px)}96.8%{transform:translate(64px,16px)}97.26%{transform:translate(64px,0px)}97.72%{transform:translate(48px,0px)}98.17%{transform:translate(48px,-16px)}}.s.s0{transform:translate(0px,-16px);animation-name:s0}@keyframes s1{0%,99.54%{transform:translate(16px,-16px)}0.46%{transform:translate(0px,-16px)}1.37%{transform:translate(0px,16px)}2.28%{transform:translate(32px,16px)}3.65%{transform:translate(32px,64px)}4.11%{transform:translate(48px,64px)}4.57%{transform:translate(48px,80px)}12.79%{transform:translate(336px,80px)}14.16%{transform:translate(336px,32px)}16.44%{transform:translate(416px,32px)}16.89%{transform:translate(416px,48px)}18.72%{transform:translate(480px,48px)}19.63%{transform:translate(480px,16px)}20.09%{transform:translate(464px,16px)}20.55%{transform:translate(464px,0px)}27.4%{transform:translate(704px,0px)}28.77%{transform:translate(704px,48px)}29.22%{transform:translate(688px,48px)}30.14%{transform:translate(688px,80px)}31.05%{transform:translate(720px,80px)}31.51%{transform:translate(720px,64px)}31.96%{transform:translate(736px,64px)}32.42%{transform:translate(736px,48px)}33.33%{transform:translate(768px,48px)}33.79%,74.89%{transform:translate(768px,32px)}34.25%,57.08%{transform:translate(784px,32px)}34.7%{transform:translate(784px,16px)}35.16%{transform:translate(800px,16px)}35.62%{transform:translate(800px,0px)}36.53%{transform:translate(832px,0px)}37.9%{transform:translate(832px,48px)}38.36%,64.84%{transform:translate(816px,48px)}39.27%,43.84%{transform:translate(816px,80px)}40.18%,42.92%{transform:translate(784px,80px)}40.64%{transform:translate(784px,64px)}41.1%{transform:translate(768px,64px)}42.01%{transform:translate(768px,96px)}42.47%,47.03%,69.86%{transform:translate(784px,96px)}44.29%{transform:translate(816px,96px)}44.75%{transform:translate(832px,96px)}45.21%{transform:translate(832px,112px)}46.58%{transform:translate(784px,112px)}51.14%{transform:translate(640px,96px)}51.6%{transform:translate(640px,80px)}54.79%{transform:translate(752px,80px)}56.16%{transform:translate(752px,32px)}58.45%{transform:translate(784px,-16px)}59.36%{transform:translate(752px,-16px)}59.82%,73.52%{transform:translate(752px,0px)}60.27%{transform:translate(736px,0px)}60.73%{transform:translate(736px,16px)}61.19%{transform:translate(720px,16px)}62.1%{transform:translate(720px,48px)}65.75%{transform:translate(816px,16px)}66.21%{transform:translate(832px,16px)}68.04%{transform:translate(832px,80px)}68.95%{transform:translate(800px,80px)}69.41%{transform:translate(800px,96px)}72.6%{transform:translate(784px,0px)}73.97%{transform:translate(752px,16px)}74.43%{transform:translate(768px,16px)}76.71%{transform:translate(704px,32px)}77.63%{transform:translate(704px,64px)}95.43%{transform:translate(80px,64px)}96.8%{transform:translate(80px,16px)}97.26%{transform:translate(64px,16px)}97.72%{transform:translate(64px,0px)}98.17%{transform:translate(48px,0px)}98.63%{transform:translate(48px,-16px)}}.s.s1{transform:translate(16px,-16px);animation-name:s1}@keyframes s2{0%,99.54%{transform:translate(32px,-16px)}0.91%{transform:translate(0px,-16px)}1.83%{transform:translate(0px,16px)}2.74%{transform:translate(32px,16px)}4.11%{transform:translate(32px,64px)}4.57%{transform:translate(48px,64px)}5.02%{transform:translate(48px,80px)}13.24%{transform:translate(336px,80px)}14.61%{transform:translate(336px,32px)}16.89%{transform:translate(416px,32px)}17.35%{transform:translate(416px,48px)}19.18%{transform:translate(480px,48px)}20.09%{transform:translate(480px,16px)}20.55%{transform:translate(464px,16px)}21%{transform:translate(464px,0px)}27.85%{transform:translate(704px,0px)}29.22%{transform:translate(704px,48px)}29.68%{transform:translate(688px,48px)}30.59%{transform:translate(688px,80px)}31.51%{transform:translate(720px,80px)}31.96%{transform:translate(720px,64px)}32.42%{transform:translate(736px,64px)}32.88%{transform:translate(736px,48px)}33.79%{transform:translate(768px,48px)}34.25%,75.34%{transform:translate(768px,32px)}34.7%,57.53%{transform:translate(784px,32px)}35.16%{transform:translate(784px,16px)}35.62%{transform:translate(800px,16px)}36.07%{transform:translate(800px,0px)}36.99%{transform:translate(832px,0px)}38.36%{transform:translate(832px,48px)}38.81%,65.3%{transform:translate(816px,48px)}39.73%,44.29%{transform:translate(816px,80px)}40.64%,43.38%{transform:translate(784px,80px)}41.1%{transform:translate(784px,64px)}41.55%{transform:translate(768px,64px)}42.47%{transform:translate(768px,96px)}42.92%,47.49%,70.32%{transform:translate(784px,96px)}44.75%{transform:translate(816px,96px)}45.21%{transform:translate(832px,96px)}45.66%{transform:translate(832px,112px)}47.03%{transform:translate(784px,112px)}51.6%{transform:translate(640px,96px)}52.05%{transform:translate(640px,80px)}55.25%{transform:translate(752px,80px)}56.62%{transform:translate(752px,32px)}58.9%{transform:translate(784px,-16px)}59.82%{transform:translate(752px,-16px)}60.27%,73.97%{transform:translate(752px,0px)}60.73%{transform:translate(736px,0px)}61.19%{transform:translate(736px,16px)}61.64%{transform:translate(720px,16px)}62.56%{transform:translate(720px,48px)}66.21%{transform:translate(816px,16px)}66.67%{transform:translate(832px,16px)}68.49%{transform:translate(832px,80px)}69.41%{transform:translate(800px,80px)}69.86%{transform:translate(800px,96px)}73.06%{transform:translate(784px,0px)}74.43%{transform:translate(752px,16px)}74.89%{transform:translate(768px,16px)}77.17%{transform:translate(704px,32px)}78.08%{transform:translate(704px,64px)}95.89%{transform:translate(80px,64px)}97.26%{transform:translate(80px,16px)}97.72%{transform:translate(64px,16px)}98.17%{transform:translate(64px,0px)}98.63%{transform:translate(48px,0px)}99.09%{transform:translate(48px,-16px)}}.s.s2{transform:translate(32px,-16px);animation-name:s2}@keyframes s3{0%,99.54%{transform:translate(48px,-16px)}1.37%{transform:translate(0px,-16px)}2.28%{transform:translate(0px,16px)}3.2%{transform:translate(32px,16px)}4.57%{transform:translate(32px,64px)}5.02%{transform:translate(48px,64px)}5.48%{transform:translate(48px,80px)}13.7%{transform:translate(336px,80px)}15.07%{transform:translate(336px,32px)}17.35%{transform:translate(416px,32px)}17.81%{transform:translate(416px,48px)}19.63%{transform:translate(480px,48px)}20.55%{transform:translate(480px,16px)}21%{transform:translate(464px,16px)}21.46%{transform:translate(464px,0px)}28.31%{transform:translate(704px,0px)}29.68%{transform:translate(704px,48px)}30.14%{transform:translate(688px,48px)}31.05%{transform:translate(688px,80px)}31.96%{transform:translate(720px,80px)}32.42%{transform:translate(720px,64px)}32.88%{transform:translate(736px,64px)}33.33%{transform:translate(736px,48px)}34.25%{transform:translate(768px,48px)}34.7%,75.8%{transform:translate(768px,32px)}35.16%,57.99%{transform:translate(784px,32px)}35.62%{transform:translate(784px,16px)}36.07%{transform:translate(800px,16px)}36.53%{transform:translate(800px,0px)}37.44%{transform:translate(832px,0px)}38.81%{transform:translate(832px,48px)}39.27%,65.75%{transform:translate(816px,48px)}40.18%,44.75%{transform:translate(816px,80px)}41.1%,43.84%{transform:translate(784px,80px)}41.55%{transform:translate(784px,64px)}42.01%{transform:translate(768px,64px)}42.92%{transform:translate(768px,96px)}43.38%,47.95%,70.78%{transform:translate(784px,96px)}45.21%{transform:translate(816px,96px)}45.66%{transform:translate(832px,96px)}46.12%{transform:translate(832px,112px)}47.49%{transform:translate(784px,112px)}52.05%{transform:translate(640px,96px)}52.51%{transform:translate(640px,80px)}55.71%{transform:translate(752px,80px)}57.08%{transform:translate(752px,32px)}59.36%{transform:translate(784px,-16px)}60.27%{transform:translate(752px,-16px)}60.73%,74.43%{transform:translate(752px,0px)}61.19%{transform:translate(736px,0px)}61.64%{transform:translate(736px,16px)}62.1%{transform:translate(720px,16px)}63.01%{transform:translate(720px,48px)}66.67%{transform:translate(816px,16px)}67.12%{transform:translate(832px,16px)}68.95%{transform:translate(832px,80px)}69.86%{transform:translate(800px,80px)}70.32%{transform:translate(800px,96px)}73.52%{transform:translate(784px,0px)}74.89%{transform:translate(752px,16px)}75.34%{transform:translate(768px,16px)}77.63%{transform:translate(704px,32px)}78.54%{transform:translate(704px,64px)}96.35%{transform:translate(80px,64px)}97.72%{transform:translate(80px,16px)}98.17%{transform:translate(64px,16px)}98.63%{transform:translate(64px,0px)}99.09%{transform:translate(48px,0px)}}.s.s3{transform:translate(48px,-16px);animation-name:s3}</style><rect class="c c0" x="2" y="2" rx="2" ry="2"/><rect class="c c1" x="2" y="18" rx="2" ry="2"/><rect class="c" x="2" y="34" rx="2" ry="2"/><rect class="c" x="2" y="50" rx="2" ry="2"/><rect class="c" x="2" y="66" rx="2" ry="2"/><rect class="c" x="2" y="82" rx="2" ry="2"/><rect class="c" x="2" y="98" rx="2" ry="2"/><rect class="c" x="18" y="2" rx="2" ry="2"/><rect class="c" x="18" y="18" rx="2" ry="2"/><rect class="c" x="18" y="34" rx="2" ry="2"/><rect class="c" x="18" y="50" rx="2" ry="2"/><rect class="c" x="18" y="66" rx="2" ry="2"/><rect class="c" x="18" y="82" rx="2" ry="2"/><rect class="c" x="18" y="98" rx="2" ry="2"/><rect class="c" x="34" y="2" rx="2" ry="2"/><rect class="c" x="34" y="18" rx="2" ry="2"/><rect class="c" x="34" y="34" rx="2" ry="2"/><rect class="c" x="34" y="50" rx="2" ry="2"/><rect class="c c2" x="34" y="66" rx="2" ry="2"/><rect class="c" x="34" y="82" rx="2" ry="2"/><rect class="c" x="34" y="98" rx="2" ry="2"/><rect class="c" x="50" y="2" rx="2" ry="2"/><rect class="c" x="50" y="18" rx="2" ry="2"/><rect class="c" x="50" y="34" rx="2" ry="2"/><rect class="c" x="50" y="50" rx="2" ry="2"/><rect class="c" x="50" y="66" rx="2" ry="2"/><rect class="c c3" x="50" y="82" rx="2" ry="2"/><rect class="c" x="50" y="98" rx="2" ry="2"/><rect class="c" x="66" y="2" rx="2" ry="2"/><rect class="c" x="66" y="18" rx="2" ry="2"/><rect class="c" x="66" y="34" rx="2" ry="2"/><rect class="c" x="66" y="50" rx="2" ry="2"/><rect class="c" x="66" y="66" rx="2" ry="2"/><rect class="c" x="66" y="82" rx="2" ry="2"/><rect class="c" x="66" y="98" rx="2" ry="2"/><rect class="c" x="82" y="2" rx="2" ry="2"/><rect class="c" x="82" y="18" rx="2" ry="2"/><rect class="c" x="82" y="34" rx="2" ry="2"/><rect class="c" x="82" y="50" rx="2" ry="2"/><rect class="c" x="82" y="66" rx="2" ry="2"/><rect class="c" x="82" y="82" rx="2" ry="2"/><rect class="c" x="82" y="98" rx="2" ry="2"/><rect class="c" x="98" y="2" rx="2" ry="2"/><rect class="c" x="98" y="18" rx="2" ry="2"/><rect class="c" x="98" y="34" rx="2" ry="2"/><rect class="c" x="98" y="50" rx="2" ry="2"/><rect class="c" x="98" y="66" rx="2" ry="2"/><rect class="c" x="98" y="82" rx="2" ry="2"/><rect class="c" x="98" y="98" rx="2" ry="2"/><rect class="c" x="114" y="2" rx="2" ry="2"/><rect class="c" x="114" y="18" rx="2" ry="2"/><rect class="c" x="114" y="34" rx="2" ry="2"/><rect class="c" x="114" y="50" rx="2" ry="2"/><rect class="c" x="114" y="66" rx="2" ry="2"/><rect class="c" x="114" y="82" rx="2" ry="2"/><rect class="c" x="114" y="98" rx="2" ry="2"/><rect class="c" x="130" y="2" rx="2" ry="2"/><rect class="c" x="130" y="18" rx="2" ry="2"/><rect class="c" x="130" y="34" rx="2" ry="2"/><rect class="c" x="130" y="50" rx="2" ry="2"/><rect class="c" x="130" y="66" rx="2" ry="2"/><rect class="c" x="130" y="82" rx="2" ry="2"/><rect class="c" x="130" y="98" rx="2" ry="2"/><rect class="c" x="146" y="2" rx="2" ry="2"/><rect class="c" x="146" y="18" rx="2" ry="2"/><rect class="c" x="146" y="34" rx="2" ry="2"/><rect class="c" x="146" y="50" rx="2" ry="2"/><rect class="c" x="146" y="66" rx="2" ry="2"/><rect class="c" x="146" y="82" rx="2" ry="2"/><rect class="c" x="146" y="98" rx="2" ry="2"/><rect class="c" x="162" y="2" rx="2" ry="2"/><rect class="c" x="162" y="18" rx="2" ry="2"/><rect class="c" x="162" y="34" rx="2" ry="2"/><rect class="c" x="162" y="50" rx="2" ry="2"/><rect class="c" x="162" y="66" rx="2" ry="2"/><rect class="c" x="162" y="82" rx="2" ry="2"/><rect class="c" x="162" y="98" rx="2" ry="2"/><rect class="c" x="178" y="2" rx="2" ry="2"/><rect class="c" x="178" y="18" rx="2" ry="2"/><rect class="c" x="178" y="34" rx="2" ry="2"/><rect class="c" x="178" y="50" rx="2" ry="2"/><rect class="c" x="178" y="66" rx="2" ry="2"/><rect class="c" x="178" y="82" rx="2" ry="2"/><rect class="c" x="178" y="98" rx="2" ry="2"/><rect class="c" x="194" y="2" rx="2" ry="2"/><rect class="c" x="194" y="18" rx="2" ry="2"/><rect class="c" x="194" y="34" rx="2" ry="2"/><rect class="c" x="194" y="50" rx="2" ry="2"/><rect class="c" x="194" y="66" rx="2" ry="2"/><rect class="c" x="194" y="82" rx="2" ry="2"/><rect class="c" x="194" y="98" rx="2" ry="2"/><rect class="c" x="210" y="2" rx="2" ry="2"/><rect class="c" x="210" y="18" rx="2" ry="2"/><rect class="c" x="210" y="34" rx="2" ry="2"/><rect class="c" x="210" y="50" rx="2" ry="2"/><rect class="c" x="210" y="66" rx="2" ry="2"/><rect class="c c4" x="210" y="82" rx="2" ry="2"/><rect class="c" x="210" y="98" rx="2" ry="2"/><rect class="c" x="226" y="2" rx="2" ry="2"/><rect class="c" x="226" y="18" rx="2" ry="2"/><rect class="c" x="226" y="34" rx="2" ry="2"/><rect class="c" x="226" y="50" rx="2" ry="2"/><rect class="c" x="226" y="66" rx="2" ry="2"/><rect class="c" x="226" y="82" rx="2" ry="2"/><rect class="c" x="226" y="98" rx="2" ry="2"/><rect class="c" x="242" y="2" rx="2" ry="2"/><rect class="c" x="242" y="18" rx="2" ry="2"/><rect class="c" x="242" y="34" rx="2" ry="2"/><rect class="c" x="242" y="50" rx="2" ry="2"/><rect class="c" x="242" y="66" rx="2" ry="2"/><rect class="c c5" x="242" y="82" rx="2" ry="2"/><rect class="c" x="242" y="98" rx="2" ry="2"/><rect class="c" x="258" y="2" rx="2" ry="2"/><rect class="c" x="258" y="18" rx="2" ry="2"/><rect class="c" x="258" y="34" rx="2" ry="2"/><rect class="c" x="258" y="50" rx="2" ry="2"/><rect class="c" x="258" y="66" rx="2" ry="2"/><rect class="c" x="258" y="82" rx="2" ry="2"/><rect class="c" x="258" y="98" rx="2" ry="2"/><rect class="c" x="274" y="2" rx="2" ry="2"/><rect class="c" x="274" y="18" rx="2" ry="2"/><rect class="c" x="274" y="34" rx="2" ry="2"/><rect class="c" x="274" y="50" rx="2" ry="2"/><rect class="c" x="274" y="66" rx="2" ry="2"/><rect class="c" x="274" y="82" rx="2" ry="2"/><rect class="c" x="274" y="98" rx="2" ry="2"/><rect class="c" x="290" y="2" rx="2" ry="2"/><rect class="c" x="290" y="18" rx="2" ry="2"/><rect class="c" x="290" y="34" rx="2" ry="2"/><rect class="c" x="290" y="50" rx="2" ry="2"/><rect class="c" x="290" y="66" rx="2" ry="2"/><rect class="c c6" x="290" y="82" rx="2" ry="2"/><rect class="c" x="290" y="98" rx="2" ry="2"/><rect class="c" x="306" y="2" rx="2" ry="2"/><rect class="c" x="306" y="18" rx="2" ry="2"/><rect class="c" x="306" y="34" rx="2" ry="2"/><rect class="c" x="306" y="50" rx="2" ry="2"/><rect class="c" x="306" y="66" rx="2" ry="2"/><rect class="c c7" x="306" y="82" rx="2" ry="2"/><rect class="c" x="306" y="98" rx="2" ry="2"/><rect class="c" x="322" y="2" rx="2" ry="2"/><rect class="c" x="322" y="18" rx="2" ry="2"/><rect class="c" x="322" y="34" rx="2" ry="2"/><rect class="c" x="322" y="50" rx="2" ry="2"/><rect class="c" x="322" y="66" rx="2" ry="2"/><rect class="c" x="322" y="82" rx="2" ry="2"/><rect class="c" x="322" y="98" rx="2" ry="2"/><rect class="c" x="338" y="2" rx="2" ry="2"/><rect class="c" x="338" y="18" rx="2" ry="2"/><rect class="c c8" x="338" y="34" rx="2" ry="2"/><rect class="c" x="338" y="50" rx="2" ry="2"/><rect class="c" x="338" y="66" rx="2" ry="2"/><rect class="c" x="338" y="82" rx="2" ry="2"/><rect class="c" x="338" y="98" rx="2" ry="2"/><rect class="c" x="354" y="2" rx="2" ry="2"/><rect class="c" x="354" y="18" rx="2" ry="2"/><rect class="c" x="354" y="34" rx="2" ry="2"/><rect class="c" x="354" y="50" rx="2" ry="2"/><rect class="c" x="354" y="66" rx="2" ry="2"/><rect class="c" x="354" y="82" rx="2" ry="2"/><rect class="c" x="354" y="98" rx="2" ry="2"/><rect class="c" x="370" y="2" rx="2" ry="2"/><rect class="c" x="370" y="18" rx="2" ry="2"/><rect class="c" x="370" y="34" rx="2" ry="2"/><rect class="c" x="370" y="50" rx="2" ry="2"/><rect class="c" x="370" y="66" rx="2" ry="2"/><rect class="c" x="370" y="82" rx="2" ry="2"/><rect class="c" x="370" y="98" rx="2" ry="2"/><rect class="c" x="386" y="2" rx="2" ry="2"/><rect class="c" x="386" y="18" rx="2" ry="2"/><rect class="c" x="386" y="34" rx="2" ry="2"/><rect class="c" x="386" y="50" rx="2" ry="2"/><rect class="c" x="386" y="66" rx="2" ry="2"/><rect class="c" x="386" y="82" rx="2" ry="2"/><rect class="c" x="386" y="98" rx="2" ry="2"/><rect class="c" x="402" y="2" rx="2" ry="2"/><rect class="c" x="402" y="18" rx="2" ry="2"/><rect class="c" x="402" y="34" rx="2" ry="2"/><rect class="c" x="402" y="50" rx="2" ry="2"/><rect class="c" x="402" y="66" rx="2" ry="2"/><rect class="c" x="402" y="82" rx="2" ry="2"/><rect class="c" x="402" y="98" rx="2" ry="2"/><rect class="c" x="418" y="2" rx="2" ry="2"/><rect class="c" x="418" y="18" rx="2" ry="2"/><rect class="c" x="418" y="34" rx="2" ry="2"/><rect class="c c9" x="418" y="50" rx="2" ry="2"/><rect class="c" x="418" y="66" rx="2" ry="2"/><rect class="c" x="418" y="82" rx="2" ry="2"/><rect class="c" x="418" y="98" rx="2" ry="2"/><rect class="c" x="434" y="2" rx="2" ry="2"/><rect class="c" x="434" y="18" rx="2" ry="2"/><rect class="c" x="434" y="34" rx="2" ry="2"/><rect class="c ca" x="434" y="50" rx="2" ry="2"/><rect class="c" x="434" y="66" rx="2" ry="2"/><rect class="c" x="434" y="82" rx="2" ry="2"/><rect class="c" x="434" y="98" rx="2" ry="2"/><rect class="c" x="450" y="2" rx="2" ry="2"/><rect class="c" x="450" y="18" rx="2" ry="2"/><rect class="c" x="450" y="34" rx="2" ry="2"/><rect class="c" x="450" y="50" rx="2" ry="2"/><rect class="c" x="450" y="66" rx="2" ry="2"/><rect class="c" x="450" y="82" rx="2" ry="2"/><rect class="c" x="450" y="98" rx="2" ry="2"/><rect class="c" x="466" y="2" rx="2" ry="2"/><rect class="c cb" x="466" y="18" rx="2" ry="2"/><rect class="c" x="466" y="34" rx="2" ry="2"/><rect class="c" x="466" y="50" rx="2" ry="2"/><rect class="c" x="466" y="66" rx="2" ry="2"/><rect class="c" x="466" y="82" rx="2" ry="2"/><rect class="c" x="466" y="98" rx="2" ry="2"/><rect class="c" x="482" y="2" rx="2" ry="2"/><rect class="c cc" x="482" y="18" rx="2" ry="2"/><rect class="c cd" x="482" y="34" rx="2" ry="2"/><rect class="c" x="482" y="50" rx="2" ry="2"/><rect class="c" x="482" y="66" rx="2" ry="2"/><rect class="c" x="482" y="82" rx="2" ry="2"/><rect class="c" x="482" y="98" rx="2" ry="2"/><rect class="c" x="498" y="2" rx="2" ry="2"/><rect class="c" x="498" y="18" rx="2" ry="2"/><rect class="c" x="498" y="34" rx="2" ry="2"/><rect class="c" x="498" y="50" rx="2" ry="2"/><rect class="c" x="498" y="66" rx="2" ry="2"/><rect class="c" x="498" y="82" rx="2" ry="2"/><rect class="c" x="498" y="98" rx="2" ry="2"/><rect class="c" x="514" y="2" rx="2" ry="2"/><rect class="c" x="514" y="18" rx="2" ry="2"/><rect class="c" x="514" y="34" rx="2" ry="2"/><rect class="c" x="514" y="50" rx="2" ry="2"/><rect class="c" x="514" y="66" rx="2" ry="2"/><rect class="c" x="514" y="82" rx="2" ry="2"/><rect class="c" x="514" y="98" rx="2" ry="2"/><rect class="c" x="530" y="2" rx="2" ry="2"/><rect class="c" x="530" y="18" rx="2" ry="2"/><rect class="c" x="530" y="34" rx="2" ry="2"/><rect class="c" x="530" y="50" rx="2" ry="2"/><rect class="c" x="530" y="66" rx="2" ry="2"/><rect class="c" x="530" y="82" rx="2" ry="2"/><rect class="c" x="530" y="98" rx="2" ry="2"/><rect class="c" x="546" y="2" rx="2" ry="2"/><rect class="c" x="546" y="18" rx="2" ry="2"/><rect class="c" x="546" y="34" rx="2" ry="2"/><rect class="c" x="546" y="50" rx="2" ry="2"/><rect class="c" x="546" y="66" rx="2" ry="2"/><rect class="c" x="546" y="82" rx="2" ry="2"/><rect class="c" x="546" y="98" rx="2" ry="2"/><rect class="c" x="562" y="2" rx="2" ry="2"/><rect class="c" x="562" y="18" rx="2" ry="2"/><rect class="c" x="562" y="34" rx="2" ry="2"/><rect class="c" x="562" y="50" rx="2" ry="2"/><rect class="c" x="562" y="66" rx="2" ry="2"/><rect class="c" x="562" y="82" rx="2" ry="2"/><rect class="c" x="562" y="98" rx="2" ry="2"/><rect class="c" x="578" y="2" rx="2" ry="2"/><rect class="c" x="578" y="18" rx="2" ry="2"/><rect class="c" x="578" y="34" rx="2" ry="2"/><rect class="c" x="578" y="50" rx="2" ry="2"/><rect class="c" x="578" y="66" rx="2" ry="2"/><rect class="c" x="578" y="82" rx="2" ry="2"/><rect class="c" x="578" y="98" rx="2" ry="2"/><rect class="c" x="594" y="2" rx="2" ry="2"/><rect class="c" x="594" y="18" rx="2" ry="2"/><rect class="c" x="594" y="34" rx="2" ry="2"/><rect class="c" x="594" y="50" rx="2" ry="2"/><rect class="c" x="594" y="66" rx="2" ry="2"/><rect class="c" x="594" y="82" rx="2" ry="2"/><rect class="c" x="594" y="98" rx="2" ry="2"/><rect class="c" x="610" y="2" rx="2" ry="2"/><rect class="c" x="610" y="18" rx="2" ry="2"/><rect class="c" x="610" y="34" rx="2" ry="2"/><rect class="c" x="610" y="50" rx="2" ry="2"/><rect class="c" x="610" y="66" rx="2" ry="2"/><rect class="c" x="610" y="82" rx="2" ry="2"/><rect class="c" x="610" y="98" rx="2" ry="2"/><rect class="c" x="626" y="2" rx="2" ry="2"/><rect class="c" x="626" y="18" rx="2" ry="2"/><rect class="c" x="626" y="34" rx="2" ry="2"/><rect class="c" x="626" y="50" rx="2" ry="2"/><rect class="c" x="626" y="66" rx="2" ry="2"/><rect class="c" x="626" y="82" rx="2" ry="2"/><rect class="c" x="626" y="98" rx="2" ry="2"/><rect class="c" x="642" y="2" rx="2" ry="2"/><rect class="c" x="642" y="18" rx="2" ry="2"/><rect class="c" x="642" y="34" rx="2" ry="2"/><rect class="c" x="642" y="50" rx="2" ry="2"/><rect class="c" x="642" y="66" rx="2" ry="2"/><rect class="c" x="642" y="82" rx="2" ry="2"/><rect class="c ce" x="642" y="98" rx="2" ry="2"/><rect class="c" x="658" y="2" rx="2" ry="2"/><rect class="c" x="658" y="18" rx="2" ry="2"/><rect class="c" x="658" y="34" rx="2" ry="2"/><rect class="c" x="658" y="50" rx="2" ry="2"/><rect class="c" x="658" y="66" rx="2" ry="2"/><rect class="c" x="658" y="82" rx="2" ry="2"/><rect class="c" x="658" y="98" rx="2" ry="2"/><rect class="c" x="674" y="2" rx="2" ry="2"/><rect class="c" x="674" y="18" rx="2" ry="2"/><rect class="c" x="674" y="34" rx="2" ry="2"/><rect class="c" x="674" y="50" rx="2" ry="2"/><rect class="c" x="674" y="66" rx="2" ry="2"/><rect class="c" x="674" y="82" rx="2" ry="2"/><rect class="c" x="674" y="98" rx="2" ry="2"/><rect class="c" x="690" y="2" rx="2" ry="2"/><rect class="c" x="690" y="18" rx="2" ry="2"/><rect class="c" x="690" y="34" rx="2" ry="2"/><rect class="c" x="690" y="50" rx="2" ry="2"/><rect class="c" x="690" y="66" rx="2" ry="2"/><rect class="c" x="690" y="82" rx="2" ry="2"/><rect class="c" x="690" y="98" rx="2" ry="2"/><rect class="c cf" x="706" y="2" rx="2" ry="2"/><rect class="c cg" x="706" y="18" rx="2" ry="2"/><rect class="c ch" x="706" y="34" rx="2" ry="2"/><rect class="c ci" x="706" y="50" rx="2" ry="2"/><rect class="c cj" x="706" y="66" rx="2" ry="2"/><rect class="c" x="706" y="82" rx="2" ry="2"/><rect class="c ck" x="706" y="98" rx="2" ry="2"/><rect class="c" x="722" y="2" rx="2" ry="2"/><rect class="c cl" x="722" y="18" rx="2" ry="2"/><rect class="c cm" x="722" y="34" rx="2" ry="2"/><rect class="c cn" x="722" y="50" rx="2" ry="2"/><rect class="c co" x="722" y="66" rx="2" ry="2"/><rect class="c cp" x="722" y="82" rx="2" ry="2"/><rect class="c cq" x="722" y="98" rx="2" ry="2"/><rect class="c cr" x="738" y="2" rx="2" ry="2"/><rect class="c cs" x="738" y="18" rx="2" ry="2"/><rect class="c ct" x="738" y="34" rx="2" ry="2"/><rect class="c cu" x="738" y="50" rx="2" ry="2"/><rect class="c" x="738" y="66" rx="2" ry="2"/><rect class="c" x="738" y="82" rx="2" ry="2"/><rect class="c" x="738" y="98" rx="2" ry="2"/><rect class="c cv" x="754" y="2" rx="2" ry="2"/><rect class="c cw" x="754" y="18" rx="2" ry="2"/><rect class="c cx" x="754" y="34" rx="2" ry="2"/><rect class="c cy" x="754" y="50" rx="2" ry="2"/><rect class="c" x="754" y="66" rx="2" ry="2"/><rect class="c" x="754" y="82" rx="2" ry="2"/><rect class="c" x="754" y="98" rx="2" ry="2"/><rect class="c cz" x="770" y="2" rx="2" ry="2"/><rect class="c c10" x="770" y="18" rx="2" ry="2"/><rect class="c c11" x="770" y="34" rx="2" ry="2"/><rect class="c c12" x="770" y="50" rx="2" ry="2"/><rect class="c c13" x="770" y="66" rx="2" ry="2"/><rect class="c" x="770" y="82" rx="2" ry="2"/><rect class="c c14" x="770" y="98" rx="2" ry="2"/><rect class="c" x="786" y="2" rx="2" ry="2"/><rect class="c c15" x="786" y="18" rx="2" ry="2"/><rect class="c c16" x="786" y="34" rx="2" ry="2"/><rect class="c" x="786" y="50" rx="2" ry="2"/><rect class="c c17" x="786" y="66" rx="2" ry="2"/><rect class="c c18" x="786" y="82" rx="2" ry="2"/><rect class="c c19" x="786" y="98" rx="2" ry="2"/><rect class="c c1a" x="802" y="2" rx="2" ry="2"/><rect class="c c1b" x="802" y="18" rx="2" ry="2"/><rect class="c" x="802" y="34" rx="2" ry="2"/><rect class="c" x="802" y="50" rx="2" ry="2"/><rect class="c" x="802" y="66" rx="2" ry="2"/><rect class="c c1c" x="802" y="82" rx="2" ry="2"/><rect class="c c1d" x="802" y="98" rx="2" ry="2"/><rect class="c c1e" x="818" y="2" rx="2" ry="2"/><rect class="c c1f" x="818" y="18" rx="2" ry="2"/><rect class="c c1g" x="818" y="34" rx="2" ry="2"/><rect class="c" x="818" y="50" rx="2" ry="2"/><rect class="c" x="818" y="66" rx="2" ry="2"/><rect class="c c1h" x="818" y="82" rx="2" ry="2"/><rect class="c c1i" x="818" y="98" rx="2" ry="2"/><rect class="c c1j" x="834" y="2" rx="2" ry="2"/><rect class="c c1k" x="834" y="18" rx="2" ry="2"/><rect class="c" x="834" y="34" rx="2" ry="2"/><rect class="c" x="834" y="50" rx="2" ry="2"/><rect class="c" x="834" y="66" rx="2" ry="2"/><rect class="c c1l" x="834" y="82" rx="2" ry="2"/><rect class="c c1m" x="834" y="98" rx="2" ry="2"/><rect class="u u0" height="12" width="676.1" x="0.0" y="144"/><rect class="u u1" height="12" width="101.2" x="675.5" y="144"/><rect class="u u2" height="12" width="29.3" x="776.1" y="144"/><rect class="u u3" height="12" width="43.7" x="804.9" y="144"/><rect class="s s0" x="0.8" y="0.8" width="14.4" height="14.4" rx="4.5" ry="4.5"/><rect class="s s1" x="1.8" y="1.8" width="12.3" height="12.3" rx="4.1" ry="4.1"/><rect class="s s2" x="2.6" y="2.6" width="10.8" height="10.8" rx="3.6" ry="3.6"/><rect class="s s3" x="3.0" y="3.0" width="9.9" height="9.9" rx="3.3" ry="3.3"/></svg>