<svg viewBox="-16 -32 880 192" width="880" height="192" xmlns="http://www.w3.org/2000/svg"><desc>Generated with https://github.com/Platane/snk</desc><style>:root{--cb:#1b1f230a;--cs:green;--ce:#144d2a;--c0:#144d2a;--c1:#1f7a3d;--c2:#2ecc71;--c3:#7bed9f;--c4:#c7f9cc}.c{shape-rendering:geometricPrecision;fill:var(--ce);stroke-width:1px;stroke:var(--cb);animation:none 22700ms linear infinite;width:12px;height:12px}@keyframes c0{2.63%{fill:var(--c1)}2.65%,100%{fill:var(--ce)}}.c.c0{fill:var(--c1);animation-name:c0}@keyframes c1{3.51%{fill:var(--c1)}3.53%,100%{fill:var(--ce)}}.c.c1{fill:var(--c1);animation-name:c1}@keyframes c2{7.92%{fill:var(--c1)}7.94%,100%{fill:var(--ce)}}.c.c2{fill:var(--c1);animation-name:c2}@keyframes c3{8.8%{fill:var(--c1)}8.82%,100%{fill:var(--ce)}}.c.c3{fill:var(--c1);animation-name:c3}@keyframes c4{10.12%{fill:var(--c1)}10.14%,100%{fill:var(--ce)}}.c.c4{fill:var(--c1);animation-name:c4}@keyframes c5{10.56%{fill:var(--c1)}10.58%,100%{fill:var(--ce)}}.c.c5{fill:var(--c1);animation-name:c5}@keyframes c6{12.77%{fill:var(--c1)}12.79%,100%{fill:var(--ce)}}.c.c6{fill:var(--c1);animation-name:c6}@keyframes c7{15.41%{fill:var(--c1)}15.43%,100%{fill:var(--ce)}}.c.c7{fill:var(--c1);animation-name:c7}@keyframes c8{15.85%{fill:var(--c1)}15.87%,100%{fill:var(--ce)}}.c.c8{fill:var(--c1);animation-name:c8}@keyframes c9{18.49%{fill:var(--c1)}18.51%,100%{fill:var(--ce)}}.c.c9{fill:var(--c1);animation-name:c9}@keyframes ca{18.05%{fill:var(--c1)}18.07%,100%{fill:var(--ce)}}.c.ca{fill:var(--c1);animation-name:ca}@keyframes cb{17.61%{fill:var(--c1)}17.63%,100%{fill:var(--ce)}}.c.cb{fill:var(--c1);animation-name:cb}@keyframes cc{56.38%{fill:var(--c1)}56.4%,100%{fill:var(--ce)}}.c.cc{fill:var(--c1);animation-name:cc}@keyframes cd{25.54%{fill:var(--c1)}25.56%,100%{fill:var(--ce)}}.c.cd{fill:var(--c1);animation-name:cd}@keyframes ce{25.98%{fill:var(--c1)}26%,100%{fill:var(--ce)}}.c.ce{fill:var(--c1);animation-name:ce}@keyframes cf{26.42%{fill:var(--c1)}26.44%,100%{fill:var(--ce)}}.c.cf{fill:var(--c1);animation-name:cf}@keyframes cg{26.86%{fill:var(--c1)}26.88%,100%{fill:var(--ce)}}.c.cg{fill:var(--c1);animation-name:cg}@keyframes ch{78.4%{fill:var(--c4)}78.42%,100%{fill:var(--ce)}}.c.ch{fill:var(--c4);animation-name:ch}@keyframes ci{54.62%{fill:var(--c1)}54.64%,100%{fill:var(--ce)}}.c.ci{fill:var(--c1);animation-name:ci}@keyframes cj{62.55%{fill:var(--c2)}62.57%,100%{fill:var(--ce)}}.c.cj{fill:var(--c2);animation-name:cj}@keyframes ck{62.99%{fill:var(--c2)}63.01%,100%{fill:var(--ce)}}.c.ck{fill:var(--c2);animation-name:ck}@keyframes cl{63.43%{fill:var(--c2)}63.45%,100%{fill:var(--ce)}}.c.cl{fill:var(--c2);animation-name:cl}@keyframes cm{29.51%{fill:var(--c1)}29.53%,100%{fill:var(--ce)}}.c.cm{fill:var(--c1);animation-name:cm}@keyframes cn{29.06%{fill:var(--c1)}29.08%,100%{fill:var(--ce)}}.c.cn{fill:var(--c1);animation-name:cn}@keyframes co{54.18%{fill:var(--c1)}54.2%,100%{fill:var(--ce)}}.c.co{fill:var(--c1);animation-name:co}@keyframes cp{37.88%{fill:var(--c1)}37.9%,100%{fill:var(--ce)}}.c.cp{fill:var(--c1);animation-name:cp}@keyframes cq{62.1%{fill:var(--c1)}62.12%,100%{fill:var(--ce)}}.c.cq{fill:var(--c1);animation-name:cq}@keyframes cr{76.64%{fill:var(--c4)}76.66%,100%{fill:var(--ce)}}.c.cr{fill:var(--c4);animation-name:cr}@keyframes cs{30.39%{fill:var(--c1)}30.41%,100%{fill:var(--ce)}}.c.cs{fill:var(--c1);animation-name:cs}@keyframes ct{37.43%{fill:var(--c1)}37.45%,100%{fill:var(--ce)}}.c.ct{fill:var(--c1);animation-name:ct}@keyframes cu{74.88%{fill:var(--c3)}74.9%,100%{fill:var(--ce)}}.c.cu{fill:var(--c3);animation-name:cu}@keyframes cv{41.84%{fill:var(--c1)}41.86%,100%{fill:var(--ce)}}.c.cv{fill:var(--c1);animation-name:cv}@keyframes cw{30.83%{fill:var(--c1)}30.85%,100%{fill:var(--ce)}}.c.cw{fill:var(--c1);animation-name:cw}@keyframes cx{74%{fill:var(--c3)}74.02%,100%{fill:var(--ce)}}.c.cx{fill:var(--c3);animation-name:cx}@keyframes cy{75.32%{fill:var(--c4)}75.34%,100%{fill:var(--ce)}}.c.cy{fill:var(--c4);animation-name:cy}@keyframes cz{31.71%{fill:var(--c1)}31.73%,100%{fill:var(--ce)}}.c.cz{fill:var(--c1);animation-name:cz}@keyframes c10{31.27%{fill:var(--c1)}31.29%,100%{fill:var(--ce)}}.c.c10{fill:var(--c1);animation-name:c10}@keyframes c11{43.16%{fill:var(--c1)}43.18%,100%{fill:var(--ce)}}.c.c11{fill:var(--c1);animation-name:c11}@keyframes c12{52.85%{fill:var(--c1)}52.87%,100%{fill:var(--ce)}}.c.c12{fill:var(--c1);animation-name:c12}@keyframes c13{32.59%{fill:var(--c1)}32.61%,100%{fill:var(--ce)}}.c.c13{fill:var(--c1);animation-name:c13}@keyframes c14{32.15%{fill:var(--c1)}32.17%,100%{fill:var(--ce)}}.c.c14{fill:var(--c1);animation-name:c14}@keyframes c15{43.6%{fill:var(--c1)}43.62%,100%{fill:var(--ce)}}.c.c15{fill:var(--c1);animation-name:c15}@keyframes c16{44.04%{fill:var(--c1)}44.06%,100%{fill:var(--ce)}}.c.c16{fill:var(--c1);animation-name:c16}@keyframes c17{52.41%{fill:var(--c1)}52.43%,100%{fill:var(--ce)}}.c.c17{fill:var(--c1);animation-name:c17}@keyframes c18{35.23%{fill:var(--c1)}35.25%,100%{fill:var(--ce)}}.c.c18{fill:var(--c1);animation-name:c18}@keyframes c19{33.03%{fill:var(--c1)}33.05%,100%{fill:var(--ce)}}.c.c19{fill:var(--c1);animation-name:c19}@keyframes c1a{44.48%{fill:var(--c1)}44.5%,100%{fill:var(--ce)}}.c.c1a{fill:var(--c1);animation-name:c1a}@keyframes c1b{70.47%{fill:var(--c2)}70.49%,100%{fill:var(--ce)}}.c.c1b{fill:var(--c2);animation-name:c1b}@keyframes c1c{34.79%{fill:var(--c1)}34.81%,100%{fill:var(--ce)}}.c.c1c{fill:var(--c1);animation-name:c1c}@keyframes c1d{33.47%{fill:var(--c1)}33.49%,100%{fill:var(--ce)}}.c.c1d{fill:var(--c1);animation-name:c1d}@keyframes c1e{66.51%{fill:var(--c2)}66.53%,100%{fill:var(--ce)}}.c.c1e{fill:var(--c2);animation-name:c1e}@keyframes c1f{44.92%{fill:var(--c1)}44.94%,100%{fill:var(--ce)}}.c.c1f{fill:var(--c1);animation-name:c1f}@keyframes c1g{45.36%{fill:var(--c1)}45.38%,100%{fill:var(--ce)}}.c.c1g{fill:var(--c1);animation-name:c1g}@keyframes c1h{34.35%{fill:var(--c1)}34.37%,100%{fill:var(--ce)}}.c.c1h{fill:var(--c1);animation-name:c1h}@keyframes c1i{33.91%{fill:var(--c1)}33.93%,100%{fill:var(--ce)}}.c.c1i{fill:var(--c1);animation-name:c1i}@keyframes c1j{69.15%{fill:var(--c2)}69.17%,100%{fill:var(--ce)}}.c.c1j{fill:var(--c2);animation-name:c1j}@keyframes c1k{45.8%{fill:var(--c1)}45.82%,100%{fill:var(--ce)}}.c.c1k{fill:var(--c1);animation-name:c1k}@keyframes c1l{48.89%{fill:var(--c1)}48.91%,100%{fill:var(--ce)}}.c.c1l{fill:var(--c1);animation-name:c1l}@keyframes c1m{48.45%{fill:var(--c1)}48.47%,100%{fill:var(--ce)}}.c.c1m{fill:var(--c1);animation-name:c1m}@keyframes c1n{68.27%{fill:var(--c2)}68.29%,100%{fill:var(--ce)}}.c.c1n{fill:var(--c2);animation-name:c1n}@keyframes c1o{46.69%{fill:var(--c1)}46.71%,100%{fill:var(--ce)}}.c.c1o{fill:var(--c1);animation-name:c1o}.u{transform-origin:0 0;transform:scale(0,1);animation:none linear 22700ms infinite}@keyframes u0{2.63%{transform:scale(0.000,1)}2.65%,3.51%{transform:scale(0.020,1)}3.53%,7.92%{transform:scale(0.041,1)}7.94%,8.8%{transform:scale(0.061,1)}8.82%,10.12%{transform:scale(0.082,1)}10.14%,10.56%{transform:scale(0.102,1)}10.58%,12.77%{transform:scale(0.122,1)}12.79%,15.41%{transform:scale(0.143,1)}15.43%,15.85%{transform:scale(0.163,1)}15.87%,17.61%{transform:scale(0.184,1)}17.63%,18.05%{transform:scale(0.204,1)}18.07%,18.49%{transform:scale(0.224,1)}18.51%,25.54%{transform:scale(0.245,1)}25.56%,25.98%{transform:scale(0.265,1)}26%,26.42%{transform:scale(0.286,1)}26.44%,26.86%{transform:scale(0.306,1)}26.88%,29.06%{transform:scale(0.327,1)}29.08%,29.51%{transform:scale(0.347,1)}29.53%,30.39%{transform:scale(0.367,1)}30.41%,30.83%{transform:scale(0.388,1)}30.85%,31.27%{transform:scale(0.408,1)}31.29%,31.71%{transform:scale(0.429,1)}31.73%,32.15%{transform:scale(0.449,1)}32.17%,32.59%{transform:scale(0.469,1)}32.61%,33.03%{transform:scale(0.490,1)}33.05%,33.47%{transform:scale(0.510,1)}33.49%,33.91%{transform:scale(0.531,1)}33.93%,34.35%{transform:scale(0.551,1)}34.37%,34.79%{transform:scale(0.571,1)}34.81%,35.23%{transform:scale(0.592,1)}35.25%,37.43%{transform:scale(0.612,1)}37.45%,37.88%{transform:scale(0.633,1)}37.9%,41.84%{transform:scale(0.653,1)}41.86%,43.16%{transform:scale(0.673,1)}43.18%,43.6%{transform:scale(0.694,1)}43.62%,44.04%{transform:scale(0.714,1)}44.06%,44.48%{transform:scale(0.735,1)}44.5%,44.92%{transform:scale(0.755,1)}44.94%,45.36%{transform:scale(0.776,1)}45.38%,45.8%{transform:scale(0.796,1)}45.82%,46.69%{transform:scale(0.816,1)}46.71%,48.45%{transform:scale(0.837,1)}48.47%,48.89%{transform:scale(0.857,1)}48.91%,52.41%{transform:scale(0.878,1)}52.43%,52.85%{transform:scale(0.898,1)}52.87%,54.18%{transform:scale(0.918,1)}54.2%,54.62%{transform:scale(0.939,1)}54.64%,56.38%{transform:scale(0.959,1)}56.4%,62.1%{transform:scale(0.980,1)}62.12%,100%{transform:scale(1.000,1)}}.u.u0{fill:var(--c1);animation-name:u0;transform-origin:0.0px 0}@keyframes u1{62.55%{transform:scale(0.000,1)}62.57%,62.99%{transform:scale(0.143,1)}63.01%,63.43%{transform:scale(0.286,1)}63.45%,66.51%{transform:scale(0.429,1)}66.53%,68.27%{transform:scale(0.571,1)}68.29%,69.15%{transform:scale(0.714,1)}69.17%,70.47%{transform:scale(0.857,1)}70.49%,100%{transform:scale(1.000,1)}}.u.u1{fill:var(--c2);animation-name:u1;transform-origin:681.2px 0}@keyframes u2{74%{transform:scale(0.000,1)}74.02%,74.88%{transform:scale(0.500,1)}74.9%,100%{transform:scale(1.000,1)}}.u.u2{fill:var(--c3);animation-name:u2;transform-origin:778.5px 0}@keyframes u3{75.32%{transform:scale(0.000,1)}75.34%,76.64%{transform:scale(0.333,1)}76.66%,78.4%{transform:scale(0.667,1)}78.42%,100%{transform:scale(1.000,1)}}.u.u3{fill:var(--c4);animation-name:u3;transform-origin:806.3px 0}.s{shape-rendering:geometricPrecision;fill:var(--cs);animation:none linear 22700ms infinite}@keyframes s0{0%,99.56%{transform:translate(0px,-16px)}0.44%{transform:translate(0px,0px)}0.88%{transform:translate(16px,0px)}2.64%{transform:translate(16px,64px)}3.08%{transform:translate(32px,64px)}3.52%{transform:translate(32px,80px)}11.45%{transform:translate(320px,80px)}12.78%{transform:translate(320px,32px)}14.98%{transform:translate(400px,32px)}15.42%{transform:translate(400px,48px)}17.18%{transform:translate(464px,48px)}18.06%{transform:translate(464px,16px)}18.5%{transform:translate(448px,16px)}18.94%{transform:translate(448px,0px)}25.55%,60.79%{transform:translate(688px,0px)}26.87%{transform:translate(688px,48px)}27.31%{transform:translate(672px,48px)}28.19%{transform:translate(672px,80px)}29.07%{transform:translate(704px,80px)}29.52%{transform:translate(704px,64px)}29.96%{transform:translate(720px,64px)}30.4%{transform:translate(720px,48px)}31.28%,42.73%{transform:translate(752px,48px)}31.72%,75.77%{transform:translate(752px,32px)}32.16%,40.97%{transform:translate(768px,32px)}32.6%{transform:translate(768px,16px)}33.92%{transform:translate(816px,16px)}34.36%{transform:translate(816px,0px)}35.24%{transform:translate(784px,0px)}35.68%{transform:translate(784px,-16px)}37%{transform:translate(736px,-16px)}37.44%,74.45%{transform:translate(736px,0px)}37.89%,61.67%{transform:translate(720px,0px)}38.33%{transform:translate(720px,-16px)}39.65%{transform:translate(768px,-16px)}41.85%{transform:translate(736px,32px)}42.29%{transform:translate(736px,48px)}43.17%{transform:translate(752px,64px)}43.61%{transform:translate(768px,64px)}44.05%{transform:translate(768px,80px)}44.93%{transform:translate(800px,80px)}45.37%{transform:translate(800px,96px)}46.26%{transform:translate(832px,96px)}46.7%{transform:translate(832px,80px)}47.14%{transform:translate(848px,80px)}48.02%{transform:translate(848px,48px)}48.46%{transform:translate(832px,48px)}48.9%,67.4%{transform:translate(832px,32px)}49.34%{transform:translate(816px,32px)}49.78%{transform:translate(816px,48px)}51.1%{transform:translate(768px,48px)}52.42%,70.93%{transform:translate(768px,96px)}56.39%{transform:translate(624px,96px)}58.59%{transform:translate(624px,16px)}60.35%{transform:translate(688px,16px)}62.11%{transform:translate(720px,16px)}62.56%{transform:translate(704px,16px)}63.44%{transform:translate(704px,48px)}66.08%{transform:translate(800px,48px)}66.52%{transform:translate(800px,32px)}68.28%{transform:translate(832px,64px)}68.72%{transform:translate(816px,64px)}69.16%{transform:translate(816px,80px)}70.04%{transform:translate(784px,80px)}70.48%{transform:translate(784px,96px)}73.57%{transform:translate(768px,0px)}74.89%{transform:translate(736px,16px)}75.33%{transform:translate(752px,16px)}77.53%{transform:translate(688px,32px)}78.41%{transform:translate(688px,64px)}88.99%{transform:translate(304px,64px)}89.43%{transform:translate(304px,48px)}90.31%{transform:translate(272px,48px)}91.19%{transform:translate(272px,16px)}93.39%{transform:translate(192px,16px)}93.83%{transform:translate(192px,0px)}94.71%{transform:translate(160px,0px)}95.15%{transform:translate(160px,-16px)}}.s.s0{transform:translate(0px,-16px);animation-name:s0}@keyframes s1{0%,99.56%{transform:translate(16px,-16px)}0.44%{transform:translate(0px,-16px)}0.88%{transform:translate(0px,0px)}1.32%{transform:translate(16px,0px)}3.08%{transform:translate(16px,64px)}3.52%{transform:translate(32px,64px)}3.96%{transform:translate(32px,80px)}11.89%{transform:translate(320px,80px)}13.22%{transform:translate(320px,32px)}15.42%{transform:translate(400px,32px)}15.86%{transform:translate(400px,48px)}17.62%{transform:translate(464px,48px)}18.5%{transform:translate(464px,16px)}18.94%{transform:translate(448px,16px)}19.38%{transform:translate(448px,0px)}25.99%,61.23%{transform:translate(688px,0px)}27.31%{transform:translate(688px,48px)}27.75%{transform:translate(672px,48px)}28.63%{transform:translate(672px,80px)}29.52%{transform:translate(704px,80px)}29.96%{transform:translate(704px,64px)}30.4%{transform:translate(720px,64px)}30.84%{transform:translate(720px,48px)}31.72%,43.17%{transform:translate(752px,48px)}32.16%,76.21%{transform:translate(752px,32px)}32.6%,41.41%{transform:translate(768px,32px)}33.04%{transform:translate(768px,16px)}34.36%{transform:translate(816px,16px)}34.8%{transform:translate(816px,0px)}35.68%{transform:translate(784px,0px)}36.12%{transform:translate(784px,-16px)}37.44%{transform:translate(736px,-16px)}37.89%,74.89%{transform:translate(736px,0px)}38.33%,62.11%{transform:translate(720px,0px)}38.77%{transform:translate(720px,-16px)}40.09%{transform:translate(768px,-16px)}42.29%{transform:translate(736px,32px)}42.73%{transform:translate(736px,48px)}43.61%{transform:translate(752px,64px)}44.05%{transform:translate(768px,64px)}44.49%{transform:translate(768px,80px)}45.37%{transform:translate(800px,80px)}45.81%{transform:translate(800px,96px)}46.7%{transform:translate(832px,96px)}47.14%{transform:translate(832px,80px)}47.58%{transform:translate(848px,80px)}48.46%{transform:translate(848px,48px)}48.9%{transform:translate(832px,48px)}49.34%,67.84%{transform:translate(832px,32px)}49.78%{transform:translate(816px,32px)}50.22%{transform:translate(816px,48px)}51.54%{transform:translate(768px,48px)}52.86%,71.37%{transform:translate(768px,96px)}56.83%{transform:translate(624px,96px)}59.03%{transform:translate(624px,16px)}60.79%{transform:translate(688px,16px)}62.56%{transform:translate(720px,16px)}63%{transform:translate(704px,16px)}63.88%{transform:translate(704px,48px)}66.52%{transform:translate(800px,48px)}66.96%{transform:translate(800px,32px)}68.72%{transform:translate(832px,64px)}69.16%{transform:translate(816px,64px)}69.6%{transform:translate(816px,80px)}70.48%{transform:translate(784px,80px)}70.93%{transform:translate(784px,96px)}74.01%{transform:translate(768px,0px)}75.33%{transform:translate(736px,16px)}75.77%{transform:translate(752px,16px)}77.97%{transform:translate(688px,32px)}78.85%{transform:translate(688px,64px)}89.43%{transform:translate(304px,64px)}89.87%{transform:translate(304px,48px)}90.75%{transform:translate(272px,48px)}91.63%{transform:translate(272px,16px)}93.83%{transform:translate(192px,16px)}94.27%{transform:translate(192px,0px)}95.15%{transform:translate(160px,0px)}95.59%{transform:translate(160px,-16px)}}.s.s1{transform:translate(16px,-16px);animation-name:s1}@keyframes s2{0%,99.56%{transform:translate(32px,-16px)}0.88%{transform:translate(0px,-16px)}1.32%{transform:translate(0px,0px)}1.76%{transform:translate(16px,0px)}3.52%{transform:translate(16px,64px)}3.96%{transform:translate(32px,64px)}4.41%{transform:translate(32px,80px)}12.33%{transform:translate(320px,80px)}13.66%{transform:translate(320px,32px)}15.86%{transform:translate(400px,32px)}16.3%{transform:translate(400px,48px)}18.06%{transform:translate(464px,48px)}18.94%{transform:translate(464px,16px)}19.38%{transform:translate(448px,16px)}19.82%{transform:translate(448px,0px)}26.43%,61.67%{transform:translate(688px,0px)}27.75%{transform:translate(688px,48px)}28.19%{transform:translate(672px,48px)}29.07%{transform:translate(672px,80px)}29.96%{transform:translate(704px,80px)}30.4%{transform:translate(704px,64px)}30.84%{transform:translate(720px,64px)}31.28%{transform:translate(720px,48px)}32.16%,43.61%{transform:translate(752px,48px)}32.6%,76.65%{transform:translate(752px,32px)}33.04%,41.85%{transform:translate(768px,32px)}33.48%{transform:translate(768px,16px)}34.8%{transform:translate(816px,16px)}35.24%{transform:translate(816px,0px)}36.12%{transform:translate(784px,0px)}36.56%{transform:translate(784px,-16px)}37.89%{transform:translate(736px,-16px)}38.33%,75.33%{transform:translate(736px,0px)}38.77%,62.56%{transform:translate(720px,0px)}39.21%{transform:translate(720px,-16px)}40.53%{transform:translate(768px,-16px)}42.73%{transform:translate(736px,32px)}43.17%{transform:translate(736px,48px)}44.05%{transform:translate(752px,64px)}44.49%{transform:translate(768px,64px)}44.93%{transform:translate(768px,80px)}45.81%{transform:translate(800px,80px)}46.26%{transform:translate(800px,96px)}47.14%{transform:translate(832px,96px)}47.58%{transform:translate(832px,80px)}48.02%{transform:translate(848px,80px)}48.9%{transform:translate(848px,48px)}49.34%{transform:translate(832px,48px)}49.78%,68.28%{transform:translate(832px,32px)}50.22%{transform:translate(816px,32px)}50.66%{transform:translate(816px,48px)}51.98%{transform:translate(768px,48px)}53.3%,71.81%{transform:translate(768px,96px)}57.27%{transform:translate(624px,96px)}59.47%{transform:translate(624px,16px)}61.23%{transform:translate(688px,16px)}63%{transform:translate(720px,16px)}63.44%{transform:translate(704px,16px)}64.32%{transform:translate(704px,48px)}66.96%{transform:translate(800px,48px)}67.4%{transform:translate(800px,32px)}69.16%{transform:translate(832px,64px)}69.6%{transform:translate(816px,64px)}70.04%{transform:translate(816px,80px)}70.93%{transform:translate(784px,80px)}71.37%{transform:translate(784px,96px)}74.45%{transform:translate(768px,0px)}75.77%{transform:translate(736px,16px)}76.21%{transform:translate(752px,16px)}78.41%{transform:translate(688px,32px)}79.3%{transform:translate(688px,64px)}89.87%{transform:translate(304px,64px)}90.31%{transform:translate(304px,48px)}91.19%{transform:translate(272px,48px)}92.07%{transform:translate(272px,16px)}94.27%{transform:translate(192px,16px)}94.71%{transform:translate(192px,0px)}95.59%{transform:translate(160px,0px)}96.04%{transform:translate(160px,-16px)}}.s.s2{transform:translate(32px,-16px);animation-name:s2}@keyframes s3{0%,99.56%{transform:translate(48px,-16px)}1.32%{transform:translate(0px,-16px)}1.76%{transform:translate(0px,0px)}2.2%{transform:translate(16px,0px)}3.96%{transform:translate(16px,64px)}4.41%{transform:translate(32px,64px)}4.85%{transform:translate(32px,80px)}12.78%{transform:translate(320px,80px)}14.1%{transform:translate(320px,32px)}16.3%{transform:translate(400px,32px)}16.74%{transform:translate(400px,48px)}18.5%{transform:translate(464px,48px)}19.38%{transform:translate(464px,16px)}19.82%{transform:translate(448px,16px)}20.26%{transform:translate(448px,0px)}26.87%,62.11%{transform:translate(688px,0px)}28.19%{transform:translate(688px,48px)}28.63%{transform:translate(672px,48px)}29.52%{transform:translate(672px,80px)}30.4%{transform:translate(704px,80px)}30.84%{transform:translate(704px,64px)}31.28%{transform:translate(720px,64px)}31.72%{transform:translate(720px,48px)}32.6%,44.05%{transform:translate(752px,48px)}33.04%,77.09%{transform:translate(752px,32px)}33.48%,42.29%{transform:translate(768px,32px)}33.92%{transform:translate(768px,16px)}35.24%{transform:translate(816px,16px)}35.68%{transform:translate(816px,0px)}36.56%{transform:translate(784px,0px)}37%{transform:translate(784px,-16px)}38.33%{transform:translate(736px,-16px)}38.77%,75.77%{transform:translate(736px,0px)}39.21%,63%{transform:translate(720px,0px)}39.65%{transform:translate(720px,-16px)}40.97%{transform:translate(768px,-16px)}43.17%{transform:translate(736px,32px)}43.61%{transform:translate(736px,48px)}44.49%{transform:translate(752px,64px)}44.93%{transform:translate(768px,64px)}45.37%{transform:translate(768px,80px)}46.26%{transform:translate(800px,80px)}46.7%{transform:translate(800px,96px)}47.58%{transform:translate(832px,96px)}48.02%{transform:translate(832px,80px)}48.46%{transform:translate(848px,80px)}49.34%{transform:translate(848px,48px)}49.78%{transform:translate(832px,48px)}50.22%,68.72%{transform:translate(832px,32px)}50.66%{transform:translate(816px,32px)}51.1%{transform:translate(816px,48px)}52.42%{transform:translate(768px,48px)}53.74%,72.25%{transform:translate(768px,96px)}57.71%{transform:translate(624px,96px)}59.91%{transform:translate(624px,16px)}61.67%{transform:translate(688px,16px)}63.44%{transform:translate(720px,16px)}63.88%{transform:translate(704px,16px)}64.76%{transform:translate(704px,48px)}67.4%{transform:translate(800px,48px)}67.84%{transform:translate(800px,32px)}69.6%{transform:translate(832px,64px)}70.04%{transform:translate(816px,64px)}70.48%{transform:translate(816px,80px)}71.37%{transform:translate(784px,80px)}71.81%{transform:translate(784px,96px)}74.89%{transform:translate(768px,0px)}76.21%{transform:translate(736px,16px)}76.65%{transform:translate(752px,16px)}78.85%{transform:translate(688px,32px)}79.74%{transform:translate(688px,64px)}90.31%{transform:translate(304px,64px)}90.75%{transform:translate(304px,48px)}91.63%{transform:translate(272px,48px)}92.51%{transform:translate(272px,16px)}94.71%{transform:translate(192px,16px)}95.15%{transform:translate(192px,0px)}96.04%{transform:translate(160px,0px)}96.48%{transform:translate(160px,-16px)}}.s.s3{transform:translate(48px,-16px);animation-name:s3}</style><rect class="c" x="2" y="2" rx="2" ry="2"/><rect class="c" x="2" y="18" rx="2" ry="2"/><rect class="c" x="2" y="34" rx="2" ry="2"/><rect class="c" x="2" y="50" rx="2" ry="2"/><rect class="c" x="2" y="66" rx="2" ry="2"/><rect class="c" x="2" y="82" rx="2" ry="2"/><rect class="c" x="2" y="98" rx="2" ry="2"/><rect class="c" x="18" y="2" rx="2" ry="2"/><rect class="c" x="18" y="18" rx="2" ry="2"/><rect class="c" x="18" y="34" rx="2" ry="2"/><rect class="c" x="18" y="50" rx="2" ry="2"/><rect class="c c0" x="18" y="66" rx="2" ry="2"/><rect class="c" x="18" y="82" rx="2" ry="2"/><rect class="c" x="18" y="98" rx="2" ry="2"/><rect class="c" x="34" y="2" rx="2" ry="2"/><rect class="c" x="34" y="18" rx="2" ry="2"/><rect class="c" x="34" y="34" rx="2" ry="2"/><rect class="c" x="34" y="50" rx="2" ry="2"/><rect class="c" x="34" y="66" rx="2" ry="2"/><rect class="c c1" x="34" y="82" rx="2" ry="2"/><rect class="c" x="34" y="98" rx="2" ry="2"/><rect class="c" x="50" y="2" rx="2" ry="2"/><rect class="c" x="50" y="18" rx="2" ry="2"/><rect class="c" x="50" y="34" rx="2" ry="2"/><rect class="c" x="50" y="50" rx="2" ry="2"/><rect class="c" x="50" y="66" rx="2" ry="2"/><rect class="c" x="50" y="82" rx="2" ry="2"/><rect class="c" x="50" y="98" rx="2" ry="2"/><rect class="c" x="66" y="2" rx="2" ry="2"/><rect class="c" x="66" y="18" rx="2" ry="2"/><rect class="c" x="66" y="34" rx="2" ry="2"/><rect class="c" x="66" y="50" rx="2" ry="2"/><rect class="c" x="66" y="66" rx="2" ry="2"/><rect class="c" x="66" y="82" rx="2" ry="2"/><rect class="c" x="66" y="98" rx="2" ry="2"/><rect class="c" x="82" y="2" rx="2" ry="2"/><rect class="c" x="82" y="18" rx="2" ry="2"/><rect class="c" x="82" y="34" rx="2" ry="2"/><rect class="c" x="82" y="50" rx="2" ry="2"/><rect class="c" x="82" y="66" rx="2" ry="2"/><rect class="c" x="82" y="82" rx="2" ry="2"/><rect class="c" x="82" y="98" rx="2" ry="2"/><rect class="c" x="98" y="2" rx="2" ry="2"/><rect class="c" x="98" y="18" rx="2" ry="2"/><rect class="c" x="98" y="34" rx="2" ry="2"/><rect class="c" x="98" y="50" rx="2" ry="2"/><rect class="c" x="98" y="66" rx="2" ry="2"/><rect class="c" x="98" y="82" rx="2" ry="2"/><rect class="c" x="98" y="98" rx="2" ry="2"/><rect class="c" x="114" y="2" rx="2" ry="2"/><rect class="c" x="114" y="18" rx="2" ry="2"/><rect class="c" x="114" y="34" rx="2" ry="2"/><rect class="c" x="114" y="50" rx="2" ry="2"/><rect class="c" x="114" y="66" rx="2" ry="2"/><rect class="c" x="114" y="82" rx="2" ry="2"/><rect class="c" x="114" y="98" rx="2" ry="2"/><rect class="c" x="130" y="2" rx="2" ry="2"/><rect class="c" x="130" y="18" rx="2" ry="2"/><rect class="c" x="130" y="34" rx="2" ry="2"/><rect class="c" x="130" y="50" rx="2" ry="2"/><rect class="c" x="130" y="66" rx="2" ry="2"/><rect class="c" x="130" y="82" rx="2" ry="2"/><rect class="c" x="130" y="98" rx="2" ry="2"/><rect class="c" x="146" y="2" rx="2" ry="2"/><rect class="c" x="146" y="18" rx="2" ry="2"/><rect class="c" x="146" y="34" rx="2" ry="2"/><rect class="c" x="146" y="50" rx="2" ry="2"/><rect class="c" x="146" y="66" rx="2" ry="2"/><rect class="c" x="146" y="82" rx="2" ry="2"/><rect class="c" x="146" y="98" rx="2" ry="2"/><rect class="c" x="162" y="2" rx="2" ry="2"/><rect class="c" x="162" y="18" rx="2" ry="2"/><rect class="c" x="162" y="34" rx="2" ry="2"/><rect class="c" x="162" y="50" rx="2" ry="2"/><rect class="c" x="162" y="66" rx="2" ry="2"/><rect class="c" x="162" y="82" rx="2" ry="2"/><rect class="c" x="162" y="98" rx="2" ry="2"/><rect class="c" x="178" y="2" rx="2" ry="2"/><rect class="c" x="178" y="18" rx="2" ry="2"/><rect class="c" x="178" y="34" rx="2" ry="2"/><rect class="c" x="178" y="50" rx="2" ry="2"/><rect class="c" x="178" y="66" rx="2" ry="2"/><rect class="c" x="178" y="82" rx="2" ry="2"/><rect class="c" x="178" y="98" rx="2" ry="2"/><rect class="c" x="194" y="2" rx="2" ry="2"/><rect class="c" x="194" y="18" rx="2" ry="2"/><rect class="c" x="194" y="34" rx="2" ry="2"/><rect class="c" x="194" y="50" rx="2" ry="2"/><rect class="c" x="194" y="66" rx="2" ry="2"/><rect class="c c2" x="194" y="82" rx="2" ry="2"/><rect class="c" x="194" y="98" rx="2" ry="2"/><rect class="c" x="210" y="2" rx="2" ry="2"/><rect class="c" x="210" y="18" rx="2" ry="2"/><rect class="c" x="210" y="34" rx="2" ry="2"/><rect class="c" x="210" y="50" rx="2" ry="2"/><rect class="c" x="210" y="66" rx="2" ry="2"/><rect class="c" x="210" y="82" rx="2" ry="2"/><rect class="c" x="210" y="98" rx="2" ry="2"/><rect class="c" x="226" y="2" rx="2" ry="2"/><rect class="c" x="226" y="18" rx="2" ry="2"/><rect class="c" x="226" y="34" rx="2" ry="2"/><rect class="c" x="226" y="50" rx="2" ry="2"/><rect class="c" x="226" y="66" rx="2" ry="2"/><rect class="c c3" x="226" y="82" rx="2" ry="2"/><rect class="c" x="226" y="98" rx="2" ry="2"/><rect class="c" x="242" y="2" rx="2" ry="2"/><rect class="c" x="242" y="18" rx="2" ry="2"/><rect class="c" x="242" y="34" rx="2" ry="2"/><rect class="c" x="242" y="50" rx="2" ry="2"/><rect class="c" x="242" y="66" rx="2" ry="2"/><rect class="c" x="242" y="82" rx="2" ry="2"/><rect class="c" x="242" y="98" rx="2" ry="2"/><rect class="c" x="258" y="2" rx="2" ry="2"/><rect class="c" x="258" y="18" rx="2" ry="2"/><rect class="c" x="258" y="34" rx="2" ry="2"/><rect class="c" x="258" y="50" rx="2" ry="2"/><rect class="c" x="258" y="66" rx="2" ry="2"/><rect class="c" x="258" y="82" rx="2" ry="2"/><rect class="c" x="258" y="98" rx="2" ry="2"/><rect class="c" x="274" y="2" rx="2" ry="2"/><rect class="c" x="274" y="18" rx="2" ry="2"/><rect class="c" x="274" y="34" rx="2" ry="2"/><rect class="c" x="274" y="50" rx="2" ry="2"/><rect class="c" x="274" y="66" rx="2" ry="2"/><rect class="c c4" x="274" y="82" rx="2" ry="2"/><rect class="c" x="274" y="98" rx="2" ry="2"/><rect class="c" x="290" y="2" rx="2" ry="2"/><rect class="c" x="290" y="18" rx="2" ry="2"/><rect class="c" x="290" y="34" rx="2" ry="2"/><rect class="c" x="290" y="50" rx="2" ry="2"/><rect class="c" x="290" y="66" rx="2" ry="2"/><rect class="c c5" x="290" y="82" rx="2" ry="2"/><rect class="c" x="290" y="98" rx="2" ry="2"/><rect class="c" x="306" y="2" rx="2" ry="2"/><rect class="c" x="306" y="18" rx="2" ry="2"/><rect class="c" x="306" y="34" rx="2" ry="2"/><rect class="c" x="306" y="50" rx="2" ry="2"/><rect class="c" x="306" y="66" rx="2" ry="2"/><rect class="c" x="306" y="82" rx="2" ry="2"/><rect class="c" x="306" y="98" rx="2" ry="2"/><rect class="c" x="322" y="2" rx="2" ry="2"/><rect class="c" x="322" y="18" rx="2" ry="2"/><rect class="c c6" x="322" y="34" rx="2" ry="2"/><rect class="c" x="322" y="50" rx="2" ry="2"/><rect class="c" x="322" y="66" rx="2" ry="2"/><rect class="c" x="322" y="82" rx="2" ry="2"/><rect class="c" x="322" y="98" rx="2" ry="2"/><rect class="c" x="338" y="2" rx="2" ry="2"/><rect class="c" x="338" y="18" rx="2" ry="2"/><rect class="c" x="338" y="34" rx="2" ry="2"/><rect class="c" x="338" y="50" rx="2" ry="2"/><rect class="c" x="338" y="66" rx="2" ry="2"/><rect class="c" x="338" y="82" rx="2" ry="2"/><rect class="c" x="338" y="98" rx="2" ry="2"/><rect class="c" x="354" y="2" rx="2" ry="2"/><rect class="c" x="354" y="18" rx="2" ry="2"/><rect class="c" x="354" y="34" rx="2" ry="2"/><rect class="c" x="354" y="50" rx="2" ry="2"/><rect class="c" x="354" y="66" rx="2" ry="2"/><rect class="c" x="354" y="82" rx="2" ry="2"/><rect class="c" x="354" y="98" rx="2" ry="2"/><rect class="c" x="370" y="2" rx="2" ry="2"/><rect class="c" x="370" y="18" rx="2" ry="2"/><rect class="c" x="370" y="34" rx="2" ry="2"/><rect class="c" x="370" y="50" rx="2" ry="2"/><rect class="c" x="370" y="66" rx="2" ry="2"/><rect class="c" x="370" y="82" rx="2" ry="2"/><rect class="c" x="370" y="98" rx="2" ry="2"/><rect class="c" x="386" y="2" rx="2" ry="2"/><rect class="c" x="386" y="18" rx="2" ry="2"/><rect class="c" x="386" y="34" rx="2" ry="2"/><rect class="c" x="386" y="50" rx="2" ry="2"/><rect class="c" x="386" y="66" rx="2" ry="2"/><rect class="c" x="386" y="82" rx="2" ry="2"/><rect class="c" x="386" y="98" rx="2" ry="2"/><rect class="c" x="402" y="2" rx="2" ry="2"/><rect class="c" x="402" y="18" rx="2" ry="2"/><rect class="c" x="402" y="34" rx="2" ry="2"/><rect class="c c7" x="402" y="50" rx="2" ry="2"/><rect class="c" x="402" y="66" rx="2" ry="2"/><rect class="c" x="402" y="82" rx="2" ry="2"/><rect class="c" x="402" y="98" rx="2" ry="2"/><rect class="c" x="418" y="2" rx="2" ry="2"/><rect class="c" x="418" y="18" rx="2" ry="2"/><rect class="c" x="418" y="34" rx="2" ry="2"/><rect class="c c8" x="418" y="50" rx="2" ry="2"/><rect class="c" x="418" y="66" rx="2" ry="2"/><rect class="c" x="418" y="82" rx="2" ry="2"/><rect class="c" x="418" y="98" rx="2" ry="2"/><rect class="c" x="434" y="2" rx="2" ry="2"/><rect class="c" x="434" y="18" rx="2" ry="2"/><rect class="c" x="434" y="34" rx="2" ry="2"/><rect class="c" x="434" y="50" rx="2" ry="2"/><rect class="c" x="434" y="66" rx="2" ry="2"/><rect class="c" x="434" y="82" rx="2" ry="2"/><rect class="c" x="434" y="98" rx="2" ry="2"/><rect class="c" x="450" y="2" rx="2" ry="2"/><rect class="c c9" x="450" y="18" rx="2" ry="2"/><rect class="c" x="450" y="34" rx="2" ry="2"/><rect class="c" x="450" y="50" rx="2" ry="2"/><rect class="c" x="450" y="66" rx="2" ry="2"/><rect class="c" x="450" y="82" rx="2" ry="2"/><rect class="c" x="450" y="98" rx="2" ry="2"/><rect class="c" x="466" y="2" rx="2" ry="2"/><rect class="c ca" x="466" y="18" rx="2" ry="2"/><rect class="c cb" x="466" y="34" rx="2" ry="2"/><rect class="c" x="466" y="50" rx="2" ry="2"/><rect class="c" x="466" y="66" rx="2" ry="2"/><rect class="c" x="466" y="82" rx="2" ry="2"/><rect class="c" x="466" y="98" rx="2" ry="2"/><rect class="c" x="482" y="2" rx="2" ry="2"/><rect class="c" x="482" y="18" rx="2" ry="2"/><rect class="c" x="482" y="34" rx="2" ry="2"/><rect class="c" x="482" y="50" rx="2" ry="2"/><rect class="c" x="482" y="66" rx="2" ry="2"/><rect class="c" x="482" y="82" rx="2" ry="2"/><rect class="c" x="482" y="98" rx="2" ry="2"/><rect class="c" x="498" y="2" rx="2" ry="2"/><rect class="c" x="498" y="18" rx="2" ry="2"/><rect class="c" x="498" y="34" rx="2" ry="2"/><rect class="c" x="498" y="50" rx="2" ry="2"/><rect class="c" x="498" y="66" rx="2" ry="2"/><rect class="c" x="498" y="82" rx="2" ry="2"/><rect class="c" x="498" y="98" rx="2" ry="2"/><rect class="c" x="514" y="2" rx="2" ry="2"/><rect class="c" x="514" y="18" rx="2" ry="2"/><rect class="c" x="514" y="34" rx="2" ry="2"/><rect class="c" x="514" y="50" rx="2" ry="2"/><rect class="c" x="514" y="66" rx="2" ry="2"/><rect class="c" x="514" y="82" rx="2" ry="2"/><rect class="c" x="514" y="98" rx="2" ry="2"/><rect class="c" x="530" y="2" rx="2" ry="2"/><rect class="c" x="530" y="18" rx="2" ry="2"/><rect class="c" x="530" y="34" rx="2" ry="2"/><rect class="c" x="530" y="50" rx="2" ry="2"/><rect class="c" x="530" y="66" rx="2" ry="2"/><rect class="c" x="530" y="82" rx="2" ry="2"/><rect class="c" x="530" y="98" rx="2" ry="2"/><rect class="c" x="546" y="2" rx="2" ry="2"/><rect class="c" x="546" y="18" rx="2" ry="2"/><rect class="c" x="546" y="34" rx="2" ry="2"/><rect class="c" x="546" y="50" rx="2" ry="2"/><rect class="c" x="546" y="66" rx="2" ry="2"/><rect class="c" x="546" y="82" rx="2" ry="2"/><rect class="c" x="546" y="98" rx="2" ry="2"/><rect class="c" x="562" y="2" rx="2" ry="2"/><rect class="c" x="562" y="18" rx="2" ry="2"/><rect class="c" x="562" y="34" rx="2" ry="2"/><rect class="c" x="562" y="50" rx="2" ry="2"/><rect class="c" x="562" y="66" rx="2" ry="2"/><rect class="c" x="562" y="82" rx="2" ry="2"/><rect class="c" x="562" y="98" rx="2" ry="2"/><rect class="c" x="578" y="2" rx="2" ry="2"/><rect class="c" x="578" y="18" rx="2" ry="2"/><rect class="c" x="578" y="34" rx="2" ry="2"/><rect class="c" x="578" y="50" rx="2" ry="2"/><rect class="c" x="578" y="66" rx="2" ry="2"/><rect class="c" x="578" y="82" rx="2" ry="2"/><rect class="c" x="578" y="98" rx="2" ry="2"/><rect class="c" x="594" y="2" rx="2" ry="2"/><rect class="c" x="594" y="18" rx="2" ry="2"/><rect class="c" x="594" y="34" rx="2" ry="2"/><rect class="c" x="594" y="50" rx="2" ry="2"/><rect class="c" x="594" y="66" rx="2" ry="2"/><rect class="c" x="594" y="82" rx="2" ry="2"/><rect class="c" x="594" y="98" rx="2" ry="2"/><rect class="c" x="610" y="2" rx="2" ry="2"/><rect class="c" x="610" y="18" rx="2" ry="2"/><rect class="c" x="610" y="34" rx="2" ry="2"/><rect class="c" x="610" y="50" rx="2" ry="2"/><rect class="c" x="610" y="66" rx="2" ry="2"/><rect class="c" x="610" y="82" rx="2" ry="2"/><rect class="c" x="610" y="98" rx="2" ry="2"/><rect class="c" x="626" y="2" rx="2" ry="2"/><rect class="c" x="626" y="18" rx="2" ry="2"/><rect class="c" x="626" y="34" rx="2" ry="2"/><rect class="c" x="626" y="50" rx="2" ry="2"/><rect class="c" x="626" y="66" rx="2" ry="2"/><rect class="c" x="626" y="82" rx="2" ry="2"/><rect class="c cc" x="626" y="98" rx="2" ry="2"/><rect class="c" x="642" y="2" rx="2" ry="2"/><rect class="c" x="642" y="18" rx="2" ry="2"/><rect class="c" x="642" y="34" rx="2" ry="2"/><rect class="c" x="642" y="50" rx="2" ry="2"/><rect class="c" x="642" y="66" rx="2" ry="2"/><rect class="c" x="642" y="82" rx="2" ry="2"/><rect class="c" x="642" y="98" rx="2" ry="2"/><rect class="c" x="658" y="2" rx="2" ry="2"/><rect class="c" x="658" y="18" rx="2" ry="2"/><rect class="c" x="658" y="34" rx="2" ry="2"/><rect class="c" x="658" y="50" rx="2" ry="2"/><rect class="c" x="658" y="66" rx="2" ry="2"/><rect class="c" x="658" y="82" rx="2" ry="2"/><rect class="c" x="658" y="98" rx="2" ry="2"/><rect class="c" x="674" y="2" rx="2" ry="2"/><rect class="c" x="674" y="18" rx="2" ry="2"/><rect class="c" x="674" y="34" rx="2" ry="2"/><rect class="c" x="674" y="50" rx="2" ry="2"/><rect class="c" x="674" y="66" rx="2" ry="2"/><rect class="c" x="674" y="82" rx="2" ry="2"/><rect class="c" x="674" y="98" rx="2" ry="2"/><rect class="c cd" x="690" y="2" rx="2" ry="2"/><rect class="c ce" x="690" y="18" rx="2" ry="2"/><rect class="c cf" x="690" y="34" rx="2" ry="2"/><rect class="c cg" x="690" y="50" rx="2" ry="2"/><rect class="c ch" x="690" y="66" rx="2" ry="2"/><rect class="c" x="690" y="82" rx="2" ry="2"/><rect class="c ci" x="690" y="98" rx="2" ry="2"/><rect class="c" x="706" y="2" rx="2" ry="2"/><rect class="c cj" x="706" y="18" rx="2" ry="2"/><rect class="c ck" x="706" y="34" rx="2" ry="2"/><rect class="c cl" x="706" y="50" rx="2" ry="2"/><rect class="c cm" x="706" y="66" rx="2" ry="2"/><rect class="c cn" x="706" y="82" rx="2" ry="2"/><rect class="c co" x="706" y="98" rx="2" ry="2"/><rect class="c cp" x="722" y="2" rx="2" ry="2"/><rect class="c cq" x="722" y="18" rx="2" ry="2"/><rect class="c cr" x="722" y="34" rx="2" ry="2"/><rect class="c cs" x="722" y="50" rx="2" ry="2"/><rect class="c" x="722" y="66" rx="2" ry="2"/><rect class="c" x="722" y="82" rx="2" ry="2"/><rect class="c" x="722" y="98" rx="2" ry="2"/><rect class="c ct" x="738" y="2" rx="2" ry="2"/><rect class="c cu" x="738" y="18" rx="2" ry="2"/><rect class="c cv" x="738" y="34" rx="2" ry="2"/><rect class="c cw" x="738" y="50" rx="2" ry="2"/><rect class="c" x="738" y="66" rx="2" ry="2"/><rect class="c" x="738" y="82" rx="2" ry="2"/><rect class="c" x="738" y="98" rx="2" ry="2"/><rect class="c cx" x="754" y="2" rx="2" ry="2"/><rect class="c cy" x="754" y="18" rx="2" ry="2"/><rect class="c cz" x="754" y="34" rx="2" ry="2"/><rect class="c c10" x="754" y="50" rx="2" ry="2"/><rect class="c c11" x="754" y="66" rx="2" ry="2"/><rect class="c" x="754" y="82" rx="2" ry="2"/><rect class="c c12" x="754" y="98" rx="2" ry="2"/><rect class="c" x="770" y="2" rx="2" ry="2"/><rect class="c c13" x="770" y="18" rx="2" ry="2"/><rect class="c c14" x="770" y="34" rx="2" ry="2"/><rect class="c" x="770" y="50" rx="2" ry="2"/><rect class="c c15" x="770" y="66" rx="2" ry="2"/><rect class="c c16" x="770" y="82" rx="2" ry="2"/><rect class="c c17" x="770" y="98" rx="2" ry="2"/><rect class="c c18" x="786" y="2" rx="2" ry="2"/><rect class="c c19" x="786" y="18" rx="2" ry="2"/><rect class="c" x="786" y="34" rx="2" ry="2"/><rect class="c" x="786" y="50" rx="2" ry="2"/><rect class="c" x="786" y="66" rx="2" ry="2"/><rect class="c c1a" x="786" y="82" rx="2" ry="2"/><rect class="c c1b" x="786" y="98" rx="2" ry="2"/><rect class="c c1c" x="802" y="2" rx="2" ry="2"/><rect class="c c1d" x="802" y="18" rx="2" ry="2"/><rect class="c c1e" x="802" y="34" rx="2" ry="2"/><rect class="c" x="802" y="50" rx="2" ry="2"/><rect class="c" x="802" y="66" rx="2" ry="2"/><rect class="c c1f" x="802" y="82" rx="2" ry="2"/><rect class="c c1g" x="802" y="98" rx="2" ry="2"/><rect class="c c1h" x="818" y="2" rx="2" ry="2"/><rect class="c c1i" x="818" y="18" rx="2" ry="2"/><rect class="c" x="818" y="34" rx="2" ry="2"/><rect class="c" x="818" y="50" rx="2" ry="2"/><rect class="c" x="818" y="66" rx="2" ry="2"/><rect class="c c1j" x="818" y="82" rx="2" ry="2"/><rect class="c c1k" x="818" y="98" rx="2" ry="2"/><rect class="c" x="834" y="2" rx="2" ry="2"/><rect class="c" x="834" y="18" rx="2" ry="2"/><rect class="c c1l" x="834" y="34" rx="2" ry="2"/><rect class="c c1m" x="834" y="50" rx="2" ry="2"/><rect class="c c1n" x="834" y="66" rx="2" ry="2"/><rect class="c c1o" x="834" y="82" rx="2" ry="2"/><rect class="c" x="834" y="98" rx="2" ry="2"/><rect class="u u0" height="12" width="681.8" x="0.0" y="144"/><rect class="u u1" height="12" width="97.9" x="681.2" y="144"/><rect class="u u2" height="12" width="28.4" x="778.5" y="144"/><rect class="u u3" height="12" width="42.3" x="806.3" y="144"/><rect class="s s0" x="0.8" y="0.8" width="14.4" height="14.4" rx="4.5" ry="4.5"/><rect class="s s1" x="1.8" y="1.8" width="12.3" height="12.3" rx="4.1" ry="4.1"/><rect class="s s2" x="2.6" y="2.6" width="10.8" height="10.8" rx="3.6" ry="3.6"/><rect class="s s3" x="3.0" y="3.0" width="9.9" height="9.9" rx="3.3" ry="3.3"/></svg>