<svg viewBox="-16 -32 880 192" width="880" height="192" xmlns="http://www.w3.org/2000/svg"><desc>Generated with https://github.com/Platane/snk</desc><style>:root{--cb:#1b1f230a;--cs:green;--ce:#144d2a;--c0:#144d2a;--c1:#1f7a3d;--c2:#2ecc71;--c3:#7bed9f;--c4:#c7f9cc}.c{shape-rendering:geometricPrecision;fill:var(--ce);stroke-width:1px;stroke:var(--cb);animation:none 29500ms linear infinite;width:12px;height:12px}@keyframes c0{1.68%{fill:var(--c1)}1.7%,100%{fill:var(--ce)}}.c.c0{fill:var(--c1);animation-name:c0}@keyframes c1{2.02%{fill:var(--c1)}2.04%,100%{fill:var(--ce)}}.c.c1{fill:var(--c1);animation-name:c1}@keyframes c2{2.36%{fill:var(--c1)}2.38%,100%{fill:var(--ce)}}.c.c2{fill:var(--c1);animation-name:c2}@keyframes c3{7.79%{fill:var(--c1)}7.81%,100%{fill:var(--ce)}}.c.c3{fill:var(--c1);animation-name:c3}@keyframes c4{4.06%{fill:var(--c1)}4.08%,100%{fill:var(--ce)}}.c.c4{fill:var(--c1);animation-name:c4}@keyframes c5{3.72%{fill:var(--c1)}3.74%,100%{fill:var(--ce)}}.c.c5{fill:var(--c1);animation-name:c5}@keyframes c6{6.09%{fill:var(--c1)}6.11%,100%{fill:var(--ce)}}.c.c6{fill:var(--c1);animation-name:c6}@keyframes c7{61.01%{fill:var(--c2)}61.03%,100%{fill:var(--ce)}}.c.c7{fill:var(--c2);animation-name:c7}@keyframes c8{12.87%{fill:var(--c1)}12.89%,100%{fill:var(--ce)}}.c.c8{fill:var(--c1);animation-name:c8}@keyframes c9{13.55%{fill:var(--c1)}13.57%,100%{fill:var(--ce)}}.c.c9{fill:var(--c1);animation-name:c9}@keyframes ca{14.57%{fill:var(--c1)}14.59%,100%{fill:var(--ce)}}.c.ca{fill:var(--c1);animation-name:ca}@keyframes cb{14.91%{fill:var(--c1)}14.93%,100%{fill:var(--ce)}}.c.cb{fill:var(--c1);animation-name:cb}@keyframes cc{16.6%{fill:var(--c1)}16.62%,100%{fill:var(--ce)}}.c.cc{fill:var(--c1);animation-name:cc}@keyframes cd{18.63%{fill:var(--c1)}18.65%,100%{fill:var(--ce)}}.c.cd{fill:var(--c1);animation-name:cd}@keyframes ce{18.97%{fill:var(--c1)}18.99%,100%{fill:var(--ce)}}.c.ce{fill:var(--c1);animation-name:ce}@keyframes cf{21.01%{fill:var(--c1)}21.03%,100%{fill:var(--ce)}}.c.cf{fill:var(--c1);animation-name:cf}@keyframes cg{20.67%{fill:var(--c1)}20.69%,100%{fill:var(--ce)}}.c.cg{fill:var(--c1);animation-name:cg}@keyframes ch{20.33%{fill:var(--c1)}20.35%,100%{fill:var(--ce)}}.c.ch{fill:var(--c1);animation-name:ch}@keyframes ci{32.53%{fill:var(--c1)}32.55%,100%{fill:var(--ce)}}.c.ci{fill:var(--c1);animation-name:ci}@keyframes cj{26.43%{fill:var(--c1)}26.45%,100%{fill:var(--ce)}}.c.cj{fill:var(--c1);animation-name:cj}@keyframes ck{38.97%{fill:var(--c2)}38.99%,100%{fill:var(--ce)}}.c.ck{fill:var(--c2);animation-name:ck}@keyframes cl{38.63%{fill:var(--c1)}38.65%,100%{fill:var(--ce)}}.c.cl{fill:var(--c1);animation-name:cl}@keyframes cm{45.75%{fill:var(--c2)}45.77%,100%{fill:var(--ce)}}.c.cm{fill:var(--c2);animation-name:cm}@keyframes cn{81.35%{fill:var(--c4)}81.37%,100%{fill:var(--ce)}}.c.cn{fill:var(--c4);animation-name:cn}@keyframes co{31.18%{fill:var(--c1)}31.2%,100%{fill:var(--ce)}}.c.co{fill:var(--c1);animation-name:co}@keyframes cp{79.99%{fill:var(--c4)}80.01%,100%{fill:var(--ce)}}.c.cp{fill:var(--c4);animation-name:cp}@keyframes cq{76.26%{fill:var(--c3)}76.28%,100%{fill:var(--ce)}}.c.cq{fill:var(--c3);animation-name:cq}@keyframes cr{75.92%{fill:var(--c3)}75.94%,100%{fill:var(--ce)}}.c.cr{fill:var(--c3);animation-name:cr}@keyframes cs{36.26%{fill:var(--c1)}36.28%,100%{fill:var(--ce)}}.c.cs{fill:var(--c1);animation-name:cs}@keyframes ct{36.6%{fill:var(--c2)}36.62%,100%{fill:var(--ce)}}.c.ct{fill:var(--c2);animation-name:ct}@keyframes cu{43.72%{fill:var(--c2)}43.74%,100%{fill:var(--ce)}}.c.cu{fill:var(--c2);animation-name:cu}@keyframes cv{27.11%{fill:var(--c1)}27.13%,100%{fill:var(--ce)}}.c.cv{fill:var(--c1);animation-name:cv}@keyframes cw{78.3%{fill:var(--c2)}78.32%,100%{fill:var(--ce)}}.c.cw{fill:var(--c2);animation-name:cw}@keyframes cx{79.31%{fill:var(--c4)}79.33%,100%{fill:var(--ce)}}.c.cx{fill:var(--c4);animation-name:cx}@keyframes cy{42.36%{fill:var(--c2)}42.38%,100%{fill:var(--ce)}}.c.cy{fill:var(--c2);animation-name:cy}@keyframes cz{40.33%{fill:var(--c2)}40.35%,100%{fill:var(--ce)}}.c.cz{fill:var(--c2);animation-name:cz}@keyframes c10{78.63%{fill:var(--c4)}78.65%,100%{fill:var(--ce)}}.c.c10{fill:var(--c4);animation-name:c10}@keyframes c11{41.68%{fill:var(--c2)}41.7%,100%{fill:var(--ce)}}.c.c11{fill:var(--c2);animation-name:c11}.u{transform-origin:0 0;transform:scale(0,1);animation:none linear 29500ms infinite}@keyframes u0{1.68%{transform:scale(0.000,1)}1.7%,2.02%{transform:scale(0.045,1)}2.04%,2.36%{transform:scale(0.091,1)}2.38%,3.72%{transform:scale(0.136,1)}3.74%,4.06%{transform:scale(0.182,1)}4.08%,6.09%{transform:scale(0.227,1)}6.11%,7.79%{transform:scale(0.273,1)}7.81%,12.87%{transform:scale(0.318,1)}12.89%,13.55%{transform:scale(0.364,1)}13.57%,14.57%{transform:scale(0.409,1)}14.59%,14.91%{transform:scale(0.455,1)}14.93%,16.6%{transform:scale(0.500,1)}16.62%,18.63%{transform:scale(0.545,1)}18.65%,18.97%{transform:scale(0.591,1)}18.99%,20.33%{transform:scale(0.636,1)}20.35%,20.67%{transform:scale(0.682,1)}20.69%,21.01%{transform:scale(0.727,1)}21.03%,26.43%{transform:scale(0.773,1)}26.45%,27.11%{transform:scale(0.818,1)}27.13%,31.18%{transform:scale(0.864,1)}31.2%,32.53%{transform:scale(0.909,1)}32.55%,36.26%{transform:scale(0.955,1)}36.28%,100%{transform:scale(1.000,1)}}.u.u0{fill:var(--c1);animation-name:u0;transform-origin:0.0px 0}@keyframes u1{36.6%{transform:scale(0.000,1)}36.62%,100%{transform:scale(1.000,1)}}.u.u1{fill:var(--c2);animation-name:u1;transform-origin:490.9px 0}@keyframes u2{38.63%{transform:scale(0.000,1)}38.65%,100%{transform:scale(1.000,1)}}.u.u2{fill:var(--c1);animation-name:u2;transform-origin:513.3px 0}@keyframes u3{38.97%{transform:scale(0.000,1)}38.99%,40.33%{transform:scale(0.143,1)}40.35%,41.68%{transform:scale(0.286,1)}41.7%,42.36%{transform:scale(0.429,1)}42.38%,43.72%{transform:scale(0.571,1)}43.74%,45.75%{transform:scale(0.714,1)}45.77%,61.01%{transform:scale(0.857,1)}61.03%,100%{transform:scale(1.000,1)}}.u.u3{fill:var(--c2);animation-name:u3;transform-origin:535.6px 0}@keyframes u4{75.92%{transform:scale(0.000,1)}75.94%,76.26%{transform:scale(0.500,1)}76.28%,100%{transform:scale(1.000,1)}}.u.u4{fill:var(--c3);animation-name:u4;transform-origin:691.8px 0}@keyframes u5{78.3%{transform:scale(0.000,1)}78.32%,100%{transform:scale(1.000,1)}}.u.u5{fill:var(--c2);animation-name:u5;transform-origin:736.4px 0}@keyframes u6{78.63%{transform:scale(0.000,1)}78.65%,79.31%{transform:scale(0.250,1)}79.33%,79.99%{transform:scale(0.500,1)}80.01%,81.35%{transform:scale(0.750,1)}81.37%,100%{transform:scale(1.000,1)}}.u.u6{fill:var(--c4);animation-name:u6;transform-origin:758.7px 0}.s{shape-rendering:geometricPrecision;fill:var(--cs);animation:none linear 29500ms infinite}@keyframes s0{0%,99.66%{transform:translate(0px,-16px)}0.34%{transform:translate(0px,0px)}1.36%,98.31%{transform:translate(48px,0px)}2.37%{transform:translate(48px,48px)}3.05%{transform:translate(80px,48px)}4.07%,97.63%{transform:translate(80px,0px)}4.75%{transform:translate(112px,0px)}6.1%,95.59%{transform:translate(112px,64px)}7.12%{transform:translate(64px,64px)}7.8%{transform:translate(64px,96px)}12.54%{transform:translate(288px,96px)}12.88%{transform:translate(288px,80px)}15.59%{transform:translate(416px,80px)}16.61%{transform:translate(416px,32px)}18.31%{transform:translate(496px,32px)}18.64%{transform:translate(496px,48px)}20%{transform:translate(560px,48px)}20.68%{transform:translate(560px,16px)}21.02%{transform:translate(544px,16px)}21.36%{transform:translate(544px,0px)}27.12%,77.97%{transform:translate(816px,0px)}27.46%{transform:translate(816px,-16px)}28.47%{transform:translate(768px,-16px)}30.51%,37.29%,44.75%{transform:translate(768px,80px)}30.85%,44.41%{transform:translate(784px,80px)}31.19%,44.07%{transform:translate(784px,96px)}32.54%{transform:translate(720px,96px)}32.88%{transform:translate(720px,112px)}34.92%{transform:translate(816px,112px)}35.93%,42.71%{transform:translate(816px,64px)}36.27%,43.05%{transform:translate(800px,64px)}36.61%,75.25%{transform:translate(800px,80px)}38.31%{transform:translate(768px,32px)}38.64%,46.1%,76.61%{transform:translate(784px,32px)}39.32%,77.29%{transform:translate(784px,0px)}40.68%{transform:translate(848px,0px)}41.36%{transform:translate(848px,32px)}41.69%,78.98%{transform:translate(832px,32px)}42.03%{transform:translate(832px,48px)}42.37%{transform:translate(816px,48px)}43.73%{transform:translate(800px,96px)}45.42%{transform:translate(768px,48px)}45.76%{transform:translate(784px,48px)}60%{transform:translate(128px,32px)}61.02%{transform:translate(128px,80px)}76.27%{transform:translate(800px,32px)}78.31%,79.66%{transform:translate(816px,16px)}78.64%{transform:translate(832px,16px)}79.32%{transform:translate(816px,32px)}80.34%{transform:translate(784px,16px)}81.36%{transform:translate(784px,64px)}95.93%{transform:translate(112px,48px)}96.27%{transform:translate(96px,48px)}96.95%{transform:translate(96px,16px)}97.29%{transform:translate(80px,16px)}98.64%{transform:translate(48px,-16px)}}.s.s0{transform:translate(0px,-16px);animation-name:s0}@keyframes s1{0%,99.66%{transform:translate(16px,-16px)}0.34%{transform:translate(0px,-16px)}0.68%{transform:translate(0px,0px)}1.69%,98.64%{transform:translate(48px,0px)}2.71%{transform:translate(48px,48px)}3.39%{transform:translate(80px,48px)}4.41%,97.97%{transform:translate(80px,0px)}5.08%{transform:translate(112px,0px)}6.44%,95.93%{transform:translate(112px,64px)}7.46%{transform:translate(64px,64px)}8.14%{transform:translate(64px,96px)}12.88%{transform:translate(288px,96px)}13.22%{transform:translate(288px,80px)}15.93%{transform:translate(416px,80px)}16.95%{transform:translate(416px,32px)}18.64%{transform:translate(496px,32px)}18.98%{transform:translate(496px,48px)}20.34%{transform:translate(560px,48px)}21.02%{transform:translate(560px,16px)}21.36%{transform:translate(544px,16px)}21.69%{transform:translate(544px,0px)}27.46%,78.31%{transform:translate(816px,0px)}27.8%{transform:translate(816px,-16px)}28.81%{transform:translate(768px,-16px)}30.85%,37.63%,45.08%{transform:translate(768px,80px)}31.19%,44.75%{transform:translate(784px,80px)}31.53%,44.41%{transform:translate(784px,96px)}32.88%{transform:translate(720px,96px)}33.22%{transform:translate(720px,112px)}35.25%{transform:translate(816px,112px)}36.27%,43.05%{transform:translate(816px,64px)}36.61%,43.39%{transform:translate(800px,64px)}36.95%,75.59%{transform:translate(800px,80px)}38.64%{transform:translate(768px,32px)}38.98%,46.44%,76.95%{transform:translate(784px,32px)}39.66%,77.63%{transform:translate(784px,0px)}41.02%{transform:translate(848px,0px)}41.69%{transform:translate(848px,32px)}42.03%,79.32%{transform:translate(832px,32px)}42.37%{transform:translate(832px,48px)}42.71%{transform:translate(816px,48px)}44.07%{transform:translate(800px,96px)}45.76%{transform:translate(768px,48px)}46.1%{transform:translate(784px,48px)}60.34%{transform:translate(128px,32px)}61.36%{transform:translate(128px,80px)}76.61%{transform:translate(800px,32px)}78.64%,80%{transform:translate(816px,16px)}78.98%{transform:translate(832px,16px)}79.66%{transform:translate(816px,32px)}80.68%{transform:translate(784px,16px)}81.69%{transform:translate(784px,64px)}96.27%{transform:translate(112px,48px)}96.61%{transform:translate(96px,48px)}97.29%{transform:translate(96px,16px)}97.63%{transform:translate(80px,16px)}98.98%{transform:translate(48px,-16px)}}.s.s1{transform:translate(16px,-16px);animation-name:s1}@keyframes s2{0%,99.66%{transform:translate(32px,-16px)}0.68%{transform:translate(0px,-16px)}1.02%{transform:translate(0px,0px)}2.03%,98.98%{transform:translate(48px,0px)}3.05%{transform:translate(48px,48px)}3.73%{transform:translate(80px,48px)}4.75%,98.31%{transform:translate(80px,0px)}5.42%{transform:translate(112px,0px)}6.78%,96.27%{transform:translate(112px,64px)}7.8%{transform:translate(64px,64px)}8.47%{transform:translate(64px,96px)}13.22%{transform:translate(288px,96px)}13.56%{transform:translate(288px,80px)}16.27%{transform:translate(416px,80px)}17.29%{transform:translate(416px,32px)}18.98%{transform:translate(496px,32px)}19.32%{transform:translate(496px,48px)}20.68%{transform:translate(560px,48px)}21.36%{transform:translate(560px,16px)}21.69%{transform:translate(544px,16px)}22.03%{transform:translate(544px,0px)}27.8%,78.64%{transform:translate(816px,0px)}28.14%{transform:translate(816px,-16px)}29.15%{transform:translate(768px,-16px)}31.19%,37.97%,45.42%{transform:translate(768px,80px)}31.53%,45.08%{transform:translate(784px,80px)}31.86%,44.75%{transform:translate(784px,96px)}33.22%{transform:translate(720px,96px)}33.56%{transform:translate(720px,112px)}35.59%{transform:translate(816px,112px)}36.61%,43.39%{transform:translate(816px,64px)}36.95%,43.73%{transform:translate(800px,64px)}37.29%,75.93%{transform:translate(800px,80px)}38.98%{transform:translate(768px,32px)}39.32%,46.78%,77.29%{transform:translate(784px,32px)}40%,77.97%{transform:translate(784px,0px)}41.36%{transform:translate(848px,0px)}42.03%{transform:translate(848px,32px)}42.37%,79.66%{transform:translate(832px,32px)}42.71%{transform:translate(832px,48px)}43.05%{transform:translate(816px,48px)}44.41%{transform:translate(800px,96px)}46.1%{transform:translate(768px,48px)}46.44%{transform:translate(784px,48px)}60.68%{transform:translate(128px,32px)}61.69%{transform:translate(128px,80px)}76.95%{transform:translate(800px,32px)}78.98%,80.34%{transform:translate(816px,16px)}79.32%{transform:translate(832px,16px)}80%{transform:translate(816px,32px)}81.02%{transform:translate(784px,16px)}82.03%{transform:translate(784px,64px)}96.61%{transform:translate(112px,48px)}96.95%{transform:translate(96px,48px)}97.63%{transform:translate(96px,16px)}97.97%{transform:translate(80px,16px)}99.32%{transform:translate(48px,-16px)}}.s.s2{transform:translate(32px,-16px);animation-name:s2}@keyframes s3{0%,99.66%{transform:translate(48px,-16px)}1.02%{transform:translate(0px,-16px)}1.36%{transform:translate(0px,0px)}2.37%,99.32%{transform:translate(48px,0px)}3.39%{transform:translate(48px,48px)}4.07%{transform:translate(80px,48px)}5.08%,98.64%{transform:translate(80px,0px)}5.76%{transform:translate(112px,0px)}7.12%,96.61%{transform:translate(112px,64px)}8.14%{transform:translate(64px,64px)}8.81%{transform:translate(64px,96px)}13.56%{transform:translate(288px,96px)}13.9%{transform:translate(288px,80px)}16.61%{transform:translate(416px,80px)}17.63%{transform:translate(416px,32px)}19.32%{transform:translate(496px,32px)}19.66%{transform:translate(496px,48px)}21.02%{transform:translate(560px,48px)}21.69%{transform:translate(560px,16px)}22.03%{transform:translate(544px,16px)}22.37%{transform:translate(544px,0px)}28.14%,78.98%{transform:translate(816px,0px)}28.47%{transform:translate(816px,-16px)}29.49%{transform:translate(768px,-16px)}31.53%,38.31%,45.76%{transform:translate(768px,80px)}31.86%,45.42%{transform:translate(784px,80px)}32.2%,45.08%{transform:translate(784px,96px)}33.56%{transform:translate(720px,96px)}33.9%{transform:translate(720px,112px)}35.93%{transform:translate(816px,112px)}36.95%,43.73%{transform:translate(816px,64px)}37.29%,44.07%{transform:translate(800px,64px)}37.63%,76.27%{transform:translate(800px,80px)}39.32%{transform:translate(768px,32px)}39.66%,47.12%,77.63%{transform:translate(784px,32px)}40.34%,78.31%{transform:translate(784px,0px)}41.69%{transform:translate(848px,0px)}42.37%{transform:translate(848px,32px)}42.71%,80%{transform:translate(832px,32px)}43.05%{transform:translate(832px,48px)}43.39%{transform:translate(816px,48px)}44.75%{transform:translate(800px,96px)}46.44%{transform:translate(768px,48px)}46.78%{transform:translate(784px,48px)}61.02%{transform:translate(128px,32px)}62.03%{transform:translate(128px,80px)}77.29%{transform:translate(800px,32px)}79.32%,80.68%{transform:translate(816px,16px)}79.66%{transform:translate(832px,16px)}80.34%{transform:translate(816px,32px)}81.36%{transform:translate(784px,16px)}82.37%{transform:translate(784px,64px)}96.95%{transform:translate(112px,48px)}97.29%{transform:translate(96px,48px)}97.97%{transform:translate(96px,16px)}98.31%{transform:translate(80px,16px)}}.s.s3{transform:translate(48px,-16px);animation-name:s3}</style><rect class="c" x="2" y="2" rx="2" ry="2"/><rect class="c" x="2" y="18" rx="2" ry="2"/><rect class="c" x="2" y="34" rx="2" ry="2"/><rect class="c" x="2" y="50" rx="2" ry="2"/><rect class="c" x="2" y="66" rx="2" ry="2"/><rect class="c" x="2" y="82" rx="2" ry="2"/><rect class="c" x="2" y="98" rx="2" ry="2"/><rect class="c" x="18" y="2" rx="2" ry="2"/><rect class="c" x="18" y="18" rx="2" ry="2"/><rect class="c" x="18" y="34" rx="2" ry="2"/><rect class="c" x="18" y="50" rx="2" ry="2"/><rect class="c" x="18" y="66" rx="2" ry="2"/><rect class="c" x="18" y="82" rx="2" ry="2"/><rect class="c" x="18" y="98" rx="2" ry="2"/><rect class="c" x="34" y="2" rx="2" ry="2"/><rect class="c" x="34" y="18" rx="2" ry="2"/><rect class="c" x="34" y="34" rx="2" ry="2"/><rect class="c" x="34" y="50" rx="2" ry="2"/><rect class="c" x="34" y="66" rx="2" ry="2"/><rect class="c" x="34" y="82" rx="2" ry="2"/><rect class="c" x="34" y="98" rx="2" ry="2"/><rect class="c" x="50" y="2" rx="2" ry="2"/><rect class="c c0" x="50" y="18" rx="2" ry="2"/><rect class="c c1" x="50" y="34" rx="2" ry="2"/><rect class="c c2" x="50" y="50" rx="2" ry="2"/><rect class="c" x="50" y="66" rx="2" ry="2"/><rect class="c" x="50" y="82" rx="2" ry="2"/><rect class="c" x="50" y="98" rx="2" ry="2"/><rect class="c" x="66" y="2" rx="2" ry="2"/><rect class="c" x="66" y="18" rx="2" ry="2"/><rect class="c" x="66" y="34" rx="2" ry="2"/><rect class="c" x="66" y="50" rx="2" ry="2"/><rect class="c" x="66" y="66" rx="2" ry="2"/><rect class="c" x="66" y="82" rx="2" ry="2"/><rect class="c c3" x="66" y="98" rx="2" ry="2"/><rect class="c c4" x="82" y="2" rx="2" ry="2"/><rect class="c c5" x="82" y="18" rx="2" ry="2"/><rect class="c" x="82" y="34" rx="2" ry="2"/><rect class="c" x="82" y="50" rx="2" ry="2"/><rect class="c" x="82" y="66" rx="2" ry="2"/><rect class="c" x="82" y="82" rx="2" ry="2"/><rect class="c" x="82" y="98" rx="2" ry="2"/><rect class="c" x="98" y="2" rx="2" ry="2"/><rect class="c" x="98" y="18" rx="2" ry="2"/><rect class="c" x="98" y="34" rx="2" ry="2"/><rect class="c" x="98" y="50" rx="2" ry="2"/><rect class="c" x="98" y="66" rx="2" ry="2"/><rect class="c" x="98" y="82" rx="2" ry="2"/><rect class="c" x="98" y="98" rx="2" ry="2"/><rect class="c" x="114" y="2" rx="2" ry="2"/><rect class="c" x="114" y="18" rx="2" ry="2"/><rect class="c" x="114" y="34" rx="2" ry="2"/><rect class="c" x="114" y="50" rx="2" ry="2"/><rect class="c c6" x="114" y="66" rx="2" ry="2"/><rect class="c" x="114" y="82" rx="2" ry="2"/><rect class="c" x="114" y="98" rx="2" ry="2"/><rect class="c" x="130" y="2" rx="2" ry="2"/><rect class="c" x="130" y="18" rx="2" ry="2"/><rect class="c" x="130" y="34" rx="2" ry="2"/><rect class="c" x="130" y="50" rx="2" ry="2"/><rect class="c" x="130" y="66" rx="2" ry="2"/><rect class="c c7" x="130" y="82" rx="2" ry="2"/><rect class="c" x="130" y="98" rx="2" ry="2"/><rect class="c" x="146" y="2" rx="2" ry="2"/><rect class="c" x="146" y="18" rx="2" ry="2"/><rect class="c" x="146" y="34" rx="2" ry="2"/><rect class="c" x="146" y="50" rx="2" ry="2"/><rect class="c" x="146" y="66" rx="2" ry="2"/><rect class="c" x="146" y="82" rx="2" ry="2"/><rect class="c" x="146" y="98" rx="2" ry="2"/><rect class="c" x="162" y="2" rx="2" ry="2"/><rect class="c" x="162" y="18" rx="2" ry="2"/><rect class="c" x="162" y="34" rx="2" ry="2"/><rect class="c" x="162" y="50" rx="2" ry="2"/><rect class="c" x="162" y="66" rx="2" ry="2"/><rect class="c" x="162" y="82" rx="2" ry="2"/><rect class="c" x="162" y="98" rx="2" ry="2"/><rect class="c" x="178" y="2" rx="2" ry="2"/><rect class="c" x="178" y="18" rx="2" ry="2"/><rect class="c" x="178" y="34" rx="2" ry="2"/><rect class="c" x="178" y="50" rx="2" ry="2"/><rect class="c" x="178" y="66" rx="2" ry="2"/><rect class="c" x="178" y="82" rx="2" ry="2"/><rect class="c" x="178" y="98" rx="2" ry="2"/><rect class="c" x="194" y="2" rx="2" ry="2"/><rect class="c" x="194" y="18" rx="2" ry="2"/><rect class="c" x="194" y="34" rx="2" ry="2"/><rect class="c" x="194" y="50" rx="2" ry="2"/><rect class="c" x="194" y="66" rx="2" ry="2"/><rect class="c" x="194" y="82" rx="2" ry="2"/><rect class="c" x="194" y="98" rx="2" ry="2"/><rect class="c" x="210" y="2" rx="2" ry="2"/><rect class="c" x="210" y="18" rx="2" ry="2"/><rect class="c" x="210" y="34" rx="2" ry="2"/><rect class="c" x="210" y="50" rx="2" ry="2"/><rect class="c" x="210" y="66" rx="2" ry="2"/><rect class="c" x="210" y="82" rx="2" ry="2"/><rect class="c" x="210" y="98" rx="2" ry="2"/><rect class="c" x="226" y="2" rx="2" ry="2"/><rect class="c" x="226" y="18" rx="2" ry="2"/><rect class="c" x="226" y="34" rx="2" ry="2"/><rect class="c" x="226" y="50" rx="2" ry="2"/><rect class="c" x="226" y="66" rx="2" ry="2"/><rect class="c" x="226" y="82" rx="2" ry="2"/><rect class="c" x="226" y="98" rx="2" ry="2"/><rect class="c" x="242" y="2" rx="2" ry="2"/><rect class="c" x="242" y="18" rx="2" ry="2"/><rect class="c" x="242" y="34" rx="2" ry="2"/><rect class="c" x="242" y="50" rx="2" ry="2"/><rect class="c" x="242" y="66" rx="2" ry="2"/><rect class="c" x="242" y="82" rx="2" ry="2"/><rect class="c" x="242" y="98" rx="2" ry="2"/><rect class="c" x="258" y="2" rx="2" ry="2"/><rect class="c" x="258" y="18" rx="2" ry="2"/><rect class="c" x="258" y="34" rx="2" ry="2"/><rect class="c" x="258" y="50" rx="2" ry="2"/><rect class="c" x="258" y="66" rx="2" ry="2"/><rect class="c" x="258" y="82" rx="2" ry="2"/><rect class="c" x="258" y="98" rx="2" ry="2"/><rect class="c" x="274" y="2" rx="2" ry="2"/><rect class="c" x="274" y="18" rx="2" ry="2"/><rect class="c" x="274" y="34" rx="2" ry="2"/><rect class="c" x="274" y="50" rx="2" ry="2"/><rect class="c" x="274" y="66" rx="2" ry="2"/><rect class="c" x="274" y="82" rx="2" ry="2"/><rect class="c" x="274" y="98" rx="2" ry="2"/><rect class="c" x="290" y="2" rx="2" ry="2"/><rect class="c" x="290" y="18" rx="2" ry="2"/><rect class="c" x="290" y="34" rx="2" ry="2"/><rect class="c" x="290" y="50" rx="2" ry="2"/><rect class="c" x="290" y="66" rx="2" ry="2"/><rect class="c c8" x="290" y="82" rx="2" ry="2"/><rect class="c" x="290" y="98" rx="2" ry="2"/><rect class="c" x="306" y="2" rx="2" ry="2"/><rect class="c" x="306" y="18" rx="2" ry="2"/><rect class="c" x="306" y="34" rx="2" ry="2"/><rect class="c" x="306" y="50" rx="2" ry="2"/><rect class="c" x="306" y="66" rx="2" ry="2"/><rect class="c" x="306" y="82" rx="2" ry="2"/><rect class="c" x="306" y="98" rx="2" ry="2"/><rect class="c" x="322" y="2" rx="2" ry="2"/><rect class="c" x="322" y="18" rx="2" ry="2"/><rect class="c" x="322" y="34" rx="2" ry="2"/><rect class="c" x="322" y="50" rx="2" ry="2"/><rect class="c" x="322" y="66" rx="2" ry="2"/><rect class="c c9" x="322" y="82" rx="2" ry="2"/><rect class="c" x="322" y="98" rx="2" ry="2"/><rect class="c" x="338" y="2" rx="2" ry="2"/><rect class="c" x="338" y="18" rx="2" ry="2"/><rect class="c" x="338" y="34" rx="2" ry="2"/><rect class="c" x="338" y="50" rx="2" ry="2"/><rect class="c" x="338" y="66" rx="2" ry="2"/><rect class="c" x="338" y="82" rx="2" ry="2"/><rect class="c" x="338" y="98" rx="2" ry="2"/><rect class="c" x="354" y="2" rx="2" ry="2"/><rect class="c" x="354" y="18" rx="2" ry="2"/><rect class="c" x="354" y="34" rx="2" ry="2"/><rect class="c" x="354" y="50" rx="2" ry="2"/><rect class="c" x="354" y="66" rx="2" ry="2"/><rect class="c" x="354" y="82" rx="2" ry="2"/><rect class="c" x="354" y="98" rx="2" ry="2"/><rect class="c" x="370" y="2" rx="2" ry="2"/><rect class="c" x="370" y="18" rx="2" ry="2"/><rect class="c" x="370" y="34" rx="2" ry="2"/><rect class="c" x="370" y="50" rx="2" ry="2"/><rect class="c" x="370" y="66" rx="2" ry="2"/><rect class="c ca" x="370" y="82" rx="2" ry="2"/><rect class="c" x="370" y="98" rx="2" ry="2"/><rect class="c" x="386" y="2" rx="2" ry="2"/><rect class="c" x="386" y="18" rx="2" ry="2"/><rect class="c" x="386" y="34" rx="2" ry="2"/><rect class="c" x="386" y="50" rx="2" ry="2"/><rect class="c" x="386" y="66" rx="2" ry="2"/><rect class="c cb" x="386" y="82" rx="2" ry="2"/><rect class="c" x="386" y="98" rx="2" ry="2"/><rect class="c" x="402" y="2" rx="2" ry="2"/><rect class="c" x="402" y="18" rx="2" ry="2"/><rect class="c" x="402" y="34" rx="2" ry="2"/><rect class="c" x="402" y="50" rx="2" ry="2"/><rect class="c" x="402" y="66" rx="2" ry="2"/><rect class="c" x="402" y="82" rx="2" ry="2"/><rect class="c" x="402" y="98" rx="2" ry="2"/><rect class="c" x="418" y="2" rx="2" ry="2"/><rect class="c" x="418" y="18" rx="2" ry="2"/><rect class="c cc" x="418" y="34" rx="2" ry="2"/><rect class="c" x="418" y="50" rx="2" ry="2"/><rect class="c" x="418" y="66" rx="2" ry="2"/><rect class="c" x="418" y="82" rx="2" ry="2"/><rect class="c" x="418" y="98" rx="2" ry="2"/><rect class="c" x="434" y="2" rx="2" ry="2"/><rect class="c" x="434" y="18" rx="2" ry="2"/><rect class="c" x="434" y="34" rx="2" ry="2"/><rect class="c" x="434" y="50" rx="2" ry="2"/><rect class="c" x="434" y="66" rx="2" ry="2"/><rect class="c" x="434" y="82" rx="2" ry="2"/><rect class="c" x="434" y="98" rx="2" ry="2"/><rect class="c" x="450" y="2" rx="2" ry="2"/><rect class="c" x="450" y="18" rx="2" ry="2"/><rect class="c" x="450" y="34" rx="2" ry="2"/><rect class="c" x="450" y="50" rx="2" ry="2"/><rect class="c" x="450" y="66" rx="2" ry="2"/><rect class="c" x="450" y="82" rx="2" ry="2"/><rect class="c" x="450" y="98" rx="2" ry="2"/><rect class="c" x="466" y="2" rx="2" ry="2"/><rect class="c" x="466" y="18" rx="2" ry="2"/><rect class="c" x="466" y="34" rx="2" ry="2"/><rect class="c" x="466" y="50" rx="2" ry="2"/><rect class="c" x="466" y="66" rx="2" ry="2"/><rect class="c" x="466" y="82" rx="2" ry="2"/><rect class="c" x="466" y="98" rx="2" ry="2"/><rect class="c" x="482" y="2" rx="2" ry="2"/><rect class="c" x="482" y="18" rx="2" ry="2"/><rect class="c" x="482" y="34" rx="2" ry="2"/><rect class="c" x="482" y="50" rx="2" ry="2"/><rect class="c" x="482" y="66" rx="2" ry="2"/><rect class="c" x="482" y="82" rx="2" ry="2"/><rect class="c" x="482" y="98" rx="2" ry="2"/><rect class="c" x="498" y="2" rx="2" ry="2"/><rect class="c" x="498" y="18" rx="2" ry="2"/><rect class="c" x="498" y="34" rx="2" ry="2"/><rect class="c cd" x="498" y="50" rx="2" ry="2"/><rect class="c" x="498" y="66" rx="2" ry="2"/><rect class="c" x="498" y="82" rx="2" ry="2"/><rect class="c" x="498" y="98" rx="2" ry="2"/><rect class="c" x="514" y="2" rx="2" ry="2"/><rect class="c" x="514" y="18" rx="2" ry="2"/><rect class="c" x="514" y="34" rx="2" ry="2"/><rect class="c ce" x="514" y="50" rx="2" ry="2"/><rect class="c" x="514" y="66" rx="2" ry="2"/><rect class="c" x="514" y="82" rx="2" ry="2"/><rect class="c" x="514" y="98" rx="2" ry="2"/><rect class="c" x="530" y="2" rx="2" ry="2"/><rect class="c" x="530" y="18" rx="2" ry="2"/><rect class="c" x="530" y="34" rx="2" ry="2"/><rect class="c" x="530" y="50" rx="2" ry="2"/><rect class="c" x="530" y="66" rx="2" ry="2"/><rect class="c" x="530" y="82" rx="2" ry="2"/><rect class="c" x="530" y="98" rx="2" ry="2"/><rect class="c" x="546" y="2" rx="2" ry="2"/><rect class="c cf" x="546" y="18" rx="2" ry="2"/><rect class="c" x="546" y="34" rx="2" ry="2"/><rect class="c" x="546" y="50" rx="2" ry="2"/><rect class="c" x="546" y="66" rx="2" ry="2"/><rect class="c" x="546" y="82" rx="2" ry="2"/><rect class="c" x="546" y="98" rx="2" ry="2"/><rect class="c" x="562" y="2" rx="2" ry="2"/><rect class="c cg" x="562" y="18" rx="2" ry="2"/><rect class="c ch" x="562" y="34" rx="2" ry="2"/><rect class="c" x="562" y="50" rx="2" ry="2"/><rect class="c" x="562" y="66" rx="2" ry="2"/><rect class="c" x="562" y="82" rx="2" ry="2"/><rect class="c" x="562" y="98" rx="2" ry="2"/><rect class="c" x="578" y="2" rx="2" ry="2"/><rect class="c" x="578" y="18" rx="2" ry="2"/><rect class="c" x="578" y="34" rx="2" ry="2"/><rect class="c" x="578" y="50" rx="2" ry="2"/><rect class="c" x="578" y="66" rx="2" ry="2"/><rect class="c" x="578" y="82" rx="2" ry="2"/><rect class="c" x="578" y="98" rx="2" ry="2"/><rect class="c" x="594" y="2" rx="2" ry="2"/><rect class="c" x="594" y="18" rx="2" ry="2"/><rect class="c" x="594" y="34" rx="2" ry="2"/><rect class="c" x="594" y="50" rx="2" ry="2"/><rect class="c" x="594" y="66" rx="2" ry="2"/><rect class="c" x="594" y="82" rx="2" ry="2"/><rect class="c" x="594" y="98" rx="2" ry="2"/><rect class="c" x="610" y="2" rx="2" ry="2"/><rect class="c" x="610" y="18" rx="2" ry="2"/><rect class="c" x="610" y="34" rx="2" ry="2"/><rect class="c" x="610" y="50" rx="2" ry="2"/><rect class="c" x="610" y="66" rx="2" ry="2"/><rect class="c" x="610" y="82" rx="2" ry="2"/><rect class="c" x="610" y="98" rx="2" ry="2"/><rect class="c" x="626" y="2" rx="2" ry="2"/><rect class="c" x="626" y="18" rx="2" ry="2"/><rect class="c" x="626" y="34" rx="2" ry="2"/><rect class="c" x="626" y="50" rx="2" ry="2"/><rect class="c" x="626" y="66" rx="2" ry="2"/><rect class="c" x="626" y="82" rx="2" ry="2"/><rect class="c" x="626" y="98" rx="2" ry="2"/><rect class="c" x="642" y="2" rx="2" ry="2"/><rect class="c" x="642" y="18" rx="2" ry="2"/><rect class="c" x="642" y="34" rx="2" ry="2"/><rect class="c" x="642" y="50" rx="2" ry="2"/><rect class="c" x="642" y="66" rx="2" ry="2"/><rect class="c" x="642" y="82" rx="2" ry="2"/><rect class="c" x="642" y="98" rx="2" ry="2"/><rect class="c" x="658" y="2" rx="2" ry="2"/><rect class="c" x="658" y="18" rx="2" ry="2"/><rect class="c" x="658" y="34" rx="2" ry="2"/><rect class="c" x="658" y="50" rx="2" ry="2"/><rect class="c" x="658" y="66" rx="2" ry="2"/><rect class="c" x="658" y="82" rx="2" ry="2"/><rect class="c" x="658" y="98" rx="2" ry="2"/><rect class="c" x="674" y="2" rx="2" ry="2"/><rect class="c" x="674" y="18" rx="2" ry="2"/><rect class="c" x="674" y="34" rx="2" ry="2"/><rect class="c" x="674" y="50" rx="2" ry="2"/><rect class="c" x="674" y="66" rx="2" ry="2"/><rect class="c" x="674" y="82" rx="2" ry="2"/><rect class="c" x="674" y="98" rx="2" ry="2"/><rect class="c" x="690" y="2" rx="2" ry="2"/><rect class="c" x="690" y="18" rx="2" ry="2"/><rect class="c" x="690" y="34" rx="2" ry="2"/><rect class="c" x="690" y="50" rx="2" ry="2"/><rect class="c" x="690" y="66" rx="2" ry="2"/><rect class="c" x="690" y="82" rx="2" ry="2"/><rect class="c" x="690" y="98" rx="2" ry="2"/><rect class="c" x="706" y="2" rx="2" ry="2"/><rect class="c" x="706" y="18" rx="2" ry="2"/><rect class="c" x="706" y="34" rx="2" ry="2"/><rect class="c" x="706" y="50" rx="2" ry="2"/><rect class="c" x="706" y="66" rx="2" ry="2"/><rect class="c" x="706" y="82" rx="2" ry="2"/><rect class="c" x="706" y="98" rx="2" ry="2"/><rect class="c" x="722" y="2" rx="2" ry="2"/><rect class="c" x="722" y="18" rx="2" ry="2"/><rect class="c" x="722" y="34" rx="2" ry="2"/><rect class="c" x="722" y="50" rx="2" ry="2"/><rect class="c" x="722" y="66" rx="2" ry="2"/><rect class="c" x="722" y="82" rx="2" ry="2"/><rect class="c ci" x="722" y="98" rx="2" ry="2"/><rect class="c" x="738" y="2" rx="2" ry="2"/><rect class="c" x="738" y="18" rx="2" ry="2"/><rect class="c" x="738" y="34" rx="2" ry="2"/><rect class="c" x="738" y="50" rx="2" ry="2"/><rect class="c" x="738" y="66" rx="2" ry="2"/><rect class="c" x="738" y="82" rx="2" ry="2"/><rect class="c" x="738" y="98" rx="2" ry="2"/><rect class="c" x="754" y="2" rx="2" ry="2"/><rect class="c" x="754" y="18" rx="2" ry="2"/><rect class="c" x="754" y="34" rx="2" ry="2"/><rect class="c" x="754" y="50" rx="2" ry="2"/><rect class="c" x="754" y="66" rx="2" ry="2"/><rect class="c" x="754" y="82" rx="2" ry="2"/><rect class="c" x="754" y="98" rx="2" ry="2"/><rect class="c" x="770" y="2" rx="2" ry="2"/><rect class="c" x="770" y="18" rx="2" ry="2"/><rect class="c" x="770" y="34" rx="2" ry="2"/><rect class="c" x="770" y="50" rx="2" ry="2"/><rect class="c" x="770" y="66" rx="2" ry="2"/><rect class="c" x="770" y="82" rx="2" ry="2"/><rect class="c" x="770" y="98" rx="2" ry="2"/><rect class="c cj" x="786" y="2" rx="2" ry="2"/><rect class="c ck" x="786" y="18" rx="2" ry="2"/><rect class="c cl" x="786" y="34" rx="2" ry="2"/><rect class="c cm" x="786" y="50" rx="2" ry="2"/><rect class="c cn" x="786" y="66" rx="2" ry="2"/><rect class="c" x="786" y="82" rx="2" ry="2"/><rect class="c co" x="786" y="98" rx="2" ry="2"/><rect class="c" x="802" y="2" rx="2" ry="2"/><rect class="c cp" x="802" y="18" rx="2" ry="2"/><rect class="c cq" x="802" y="34" rx="2" ry="2"/><rect class="c cr" x="802" y="50" rx="2" ry="2"/><rect class="c cs" x="802" y="66" rx="2" ry="2"/><rect class="c ct" x="802" y="82" rx="2" ry="2"/><rect class="c cu" x="802" y="98" rx="2" ry="2"/><rect class="c cv" x="818" y="2" rx="2" ry="2"/><rect class="c cw" x="818" y="18" rx="2" ry="2"/><rect class="c cx" x="818" y="34" rx="2" ry="2"/><rect class="c cy" x="818" y="50" rx="2" ry="2"/><rect class="c" x="818" y="66" rx="2" ry="2"/><rect class="c" x="818" y="82" rx="2" ry="2"/><rect class="c" x="818" y="98" rx="2" ry="2"/><rect class="c cz" x="834" y="2" rx="2" ry="2"/><rect class="c c10" x="834" y="18" rx="2" ry="2"/><rect class="c c11" x="834" y="34" rx="2" ry="2"/><rect class="c" x="834" y="50" rx="2" ry="2"/><rect class="c" x="834" y="66" rx="2" ry="2"/><rect class="c" x="834" y="82" rx="2" ry="2"/><rect class="u u0" height="12" width="491.5" x="0.0" y="144"/><rect class="u u1" height="12" width="22.9" x="490.9" y="144"/><rect class="u u2" height="12" width="22.9" x="513.3" y="144"/><rect class="u u3" height="12" width="156.8" x="535.6" y="144"/><rect class="u u4" height="12" width="45.2" x="691.8" y="144"/><rect class="u u5" height="12" width="22.9" x="736.4" y="144"/><rect class="u u6" height="12" width="89.9" x="758.7" y="144"/><rect class="s s0" x="0.8" y="0.8" width="14.4" height="14.4" rx="4.5" ry="4.5"/><rect class="s s1" x="1.8" y="1.8" width="12.3" height="12.3" rx="4.1" ry="4.1"/><rect class="s s2" x="2.6" y="2.6" width="10.8" height="10.8" rx="3.6" ry="3.6"/><rect class="s s3" x="3.0" y="3.0" width="9.9" height="9.9" rx="3.3" ry="3.3"/></svg>