<svg viewBox="-16 -32 880 192" width="880" height="192" xmlns="http://www.w3.org/2000/svg"><desc>Generated with https://github.com/Platane/snk</desc><style>:root{--cb:#1b1f230a;--cs:green;--ce:#144d2a;--c0:#144d2a;--c1:#1f7a3d;--c2:#2ecc71;--c3:#7bed9f;--c4:#c7f9cc}.c{shape-rendering:geometricPrecision;fill:var(--ce);stroke-width:1px;stroke:var(--cb);animation:none 20700ms linear infinite;width:12px;height:12px}@keyframes c0{0.96%{fill:var(--c1)}0.98%,100%{fill:var(--ce)}}.c.c0{fill:var(--c1);animation-name:c0}@keyframes c1{1.44%{fill:var(--c1)}1.46%,100%{fill:var(--ce)}}.c.c1{fill:var(--c1);animation-name:c1}@keyframes c2{1.92%{fill:var(--c1)}1.94%,100%{fill:var(--ce)}}.c.c2{fill:var(--c1);animation-name:c2}@keyframes c3{10.62%{fill:var(--c1)}10.64%,100%{fill:var(--ce)}}.c.c3{fill:var(--c1);animation-name:c3}@keyframes c4{4.34%{fill:var(--c1)}4.36%,100%{fill:var(--ce)}}.c.c4{fill:var(--c1);animation-name:c4}@keyframes c5{3.85%{fill:var(--c1)}3.87%,100%{fill:var(--ce)}}.c.c5{fill:var(--c1);animation-name:c5}@keyframes c6{7.24%{fill:var(--c1)}7.26%,100%{fill:var(--ce)}}.c.c6{fill:var(--c1);animation-name:c6}@keyframes c7{8.2%{fill:var(--c1)}8.22%,100%{fill:var(--ce)}}.c.c7{fill:var(--c1);animation-name:c7}@keyframes c8{17.86%{fill:var(--c1)}17.88%,100%{fill:var(--ce)}}.c.c8{fill:var(--c1);animation-name:c8}@keyframes c9{18.83%{fill:var(--c1)}18.85%,100%{fill:var(--ce)}}.c.c9{fill:var(--c1);animation-name:c9}@keyframes ca{20.28%{fill:var(--c1)}20.3%,100%{fill:var(--ce)}}.c.ca{fill:var(--c1);animation-name:ca}@keyframes cb{20.76%{fill:var(--c1)}20.78%,100%{fill:var(--ce)}}.c.cb{fill:var(--c1);animation-name:cb}@keyframes cc{23.18%{fill:var(--c1)}23.2%,100%{fill:var(--ce)}}.c.cc{fill:var(--c1);animation-name:cc}@keyframes cd{26.08%{fill:var(--c1)}26.1%,100%{fill:var(--ce)}}.c.cd{fill:var(--c1);animation-name:cd}@keyframes ce{26.56%{fill:var(--c1)}26.58%,100%{fill:var(--ce)}}.c.ce{fill:var(--c1);animation-name:ce}@keyframes cf{29.46%{fill:var(--c1)}29.48%,100%{fill:var(--ce)}}.c.cf{fill:var(--c1);animation-name:cf}@keyframes cg{28.98%{fill:var(--c1)}29%,100%{fill:var(--ce)}}.c.cg{fill:var(--c1);animation-name:cg}@keyframes ch{28.49%{fill:var(--c1)}28.51%,100%{fill:var(--ce)}}.c.ch{fill:var(--c1);animation-name:ch}@keyframes ci{60.38%{fill:var(--c1)}60.4%,100%{fill:var(--ce)}}.c.ci{fill:var(--c1);animation-name:ci}@keyframes cj{37.19%{fill:var(--c1)}37.21%,100%{fill:var(--ce)}}.c.cj{fill:var(--c1);animation-name:cj}@keyframes ck{37.67%{fill:var(--c1)}37.69%,100%{fill:var(--ce)}}.c.ck{fill:var(--c1);animation-name:ck}@keyframes cl{38.15%{fill:var(--c1)}38.17%,100%{fill:var(--ce)}}.c.cl{fill:var(--c1);animation-name:cl}@keyframes cm{38.64%{fill:var(--c1)}38.66%,100%{fill:var(--ce)}}.c.cm{fill:var(--c1);animation-name:cm}@keyframes cn{74.87%{fill:var(--c4)}74.89%,100%{fill:var(--ce)}}.c.cn{fill:var(--c4);animation-name:cn}@keyframes co{58.44%{fill:var(--c1)}58.46%,100%{fill:var(--ce)}}.c.co{fill:var(--c1);animation-name:co}@keyframes cp{67.14%{fill:var(--c2)}67.16%,100%{fill:var(--ce)}}.c.cp{fill:var(--c2);animation-name:cp}@keyframes cq{67.62%{fill:var(--c2)}67.64%,100%{fill:var(--ce)}}.c.cq{fill:var(--c2);animation-name:cq}@keyframes cr{68.11%{fill:var(--c2)}68.13%,100%{fill:var(--ce)}}.c.cr{fill:var(--c2);animation-name:cr}@keyframes cs{41.54%{fill:var(--c1)}41.56%,100%{fill:var(--ce)}}.c.cs{fill:var(--c1);animation-name:cs}@keyframes ct{41.05%{fill:var(--c1)}41.07%,100%{fill:var(--ce)}}.c.ct{fill:var(--c1);animation-name:ct}@keyframes cu{57.96%{fill:var(--c1)}57.98%,100%{fill:var(--ce)}}.c.cu{fill:var(--c1);animation-name:cu}@keyframes cv{48.78%{fill:var(--c1)}48.8%,100%{fill:var(--ce)}}.c.cv{fill:var(--c1);animation-name:cv}@keyframes cw{66.66%{fill:var(--c1)}66.68%,100%{fill:var(--ce)}}.c.cw{fill:var(--c1);animation-name:cw}@keyframes cx{72.94%{fill:var(--c4)}72.96%,100%{fill:var(--ce)}}.c.cx{fill:var(--c4);animation-name:cx}@keyframes cy{42.5%{fill:var(--c1)}42.52%,100%{fill:var(--ce)}}.c.cy{fill:var(--c1);animation-name:cy}@keyframes cz{48.3%{fill:var(--c1)}48.32%,100%{fill:var(--ce)}}.c.cz{fill:var(--c1);animation-name:cz}@keyframes c10{70.04%{fill:var(--c3)}70.06%,100%{fill:var(--ce)}}.c.c10{fill:var(--c3);animation-name:c10}@keyframes c11{53.13%{fill:var(--c1)}53.15%,100%{fill:var(--ce)}}.c.c11{fill:var(--c1);animation-name:c11}@keyframes c12{42.99%{fill:var(--c1)}43.01%,100%{fill:var(--ce)}}.c.c12{fill:var(--c1);animation-name:c12}@keyframes c13{71%{fill:var(--c3)}71.02%,100%{fill:var(--ce)}}.c.c13{fill:var(--c3);animation-name:c13}@keyframes c14{71.49%{fill:var(--c4)}71.51%,100%{fill:var(--ce)}}.c.c14{fill:var(--c4);animation-name:c14}@keyframes c15{43.95%{fill:var(--c1)}43.97%,100%{fill:var(--ce)}}.c.c15{fill:var(--c1);animation-name:c15}@keyframes c16{43.47%{fill:var(--c1)}43.49%,100%{fill:var(--ce)}}.c.c16{fill:var(--c1);animation-name:c16}@keyframes c17{54.58%{fill:var(--c1)}54.6%,100%{fill:var(--ce)}}.c.c17{fill:var(--c1);animation-name:c17}@keyframes c18{56.51%{fill:var(--c1)}56.53%,100%{fill:var(--ce)}}.c.c18{fill:var(--c1);animation-name:c18}@keyframes c19{44.92%{fill:var(--c1)}44.94%,100%{fill:var(--ce)}}.c.c19{fill:var(--c1);animation-name:c19}@keyframes c1a{44.43%{fill:var(--c1)}44.45%,100%{fill:var(--ce)}}.c.c1a{fill:var(--c1);animation-name:c1a}@keyframes c1b{55.06%{fill:var(--c1)}55.08%,100%{fill:var(--ce)}}.c.c1b{fill:var(--c1);animation-name:c1b}@keyframes c1c{55.55%{fill:var(--c1)}55.57%,100%{fill:var(--ce)}}.c.c1c{fill:var(--c1);animation-name:c1c}@keyframes c1d{56.03%{fill:var(--c1)}56.05%,100%{fill:var(--ce)}}.c.c1d{fill:var(--c1);animation-name:c1d}@keyframes c1e{45.88%{fill:var(--c1)}45.9%,100%{fill:var(--ce)}}.c.c1e{fill:var(--c1);animation-name:c1e}.u{transform-origin:0 0;transform:scale(0,1);animation:none linear 20700ms infinite}@keyframes u0{0.96%{transform:scale(0.000,1)}0.98%,1.44%{transform:scale(0.023,1)}1.46%,1.92%{transform:scale(0.047,1)}1.94%,3.85%{transform:scale(0.070,1)}3.87%,4.34%{transform:scale(0.093,1)}4.36%,7.24%{transform:scale(0.116,1)}7.26%,8.2%{transform:scale(0.140,1)}8.22%,10.62%{transform:scale(0.163,1)}10.64%,17.86%{transform:scale(0.186,1)}17.88%,18.83%{transform:scale(0.209,1)}18.85%,20.28%{transform:scale(0.233,1)}20.3%,20.76%{transform:scale(0.256,1)}20.78%,23.18%{transform:scale(0.279,1)}23.2%,26.08%{transform:scale(0.302,1)}26.1%,26.56%{transform:scale(0.326,1)}26.58%,28.49%{transform:scale(0.349,1)}28.51%,28.98%{transform:scale(0.372,1)}29%,29.46%{transform:scale(0.395,1)}29.48%,37.19%{transform:scale(0.419,1)}37.21%,37.67%{transform:scale(0.442,1)}37.69%,38.15%{transform:scale(0.465,1)}38.17%,38.64%{transform:scale(0.488,1)}38.66%,41.05%{transform:scale(0.512,1)}41.07%,41.54%{transform:scale(0.535,1)}41.56%,42.5%{transform:scale(0.558,1)}42.52%,42.99%{transform:scale(0.581,1)}43.01%,43.47%{transform:scale(0.605,1)}43.49%,43.95%{transform:scale(0.628,1)}43.97%,44.43%{transform:scale(0.651,1)}44.45%,44.92%{transform:scale(0.674,1)}44.94%,45.88%{transform:scale(0.698,1)}45.9%,48.3%{transform:scale(0.721,1)}48.32%,48.78%{transform:scale(0.744,1)}48.8%,53.13%{transform:scale(0.767,1)}53.15%,54.58%{transform:scale(0.791,1)}54.6%,55.06%{transform:scale(0.814,1)}55.08%,55.55%{transform:scale(0.837,1)}55.57%,56.03%{transform:scale(0.860,1)}56.05%,56.51%{transform:scale(0.884,1)}56.53%,57.96%{transform:scale(0.907,1)}57.98%,58.44%{transform:scale(0.930,1)}58.46%,60.38%{transform:scale(0.953,1)}60.4%,66.66%{transform:scale(0.977,1)}66.68%,100%{transform:scale(1.000,1)}}.u.u0{fill:var(--c1);animation-name:u0;transform-origin:0.0px 0}@keyframes u1{67.14%{transform:scale(0.000,1)}67.16%,67.62%{transform:scale(0.333,1)}67.64%,68.11%{transform:scale(0.667,1)}68.13%,100%{transform:scale(1.000,1)}}.u.u1{fill:var(--c2);animation-name:u1;transform-origin:715.0px 0}@keyframes u2{70.04%{transform:scale(0.000,1)}70.06%,71%{transform:scale(0.500,1)}71.02%,100%{transform:scale(1.000,1)}}.u.u2{fill:var(--c3);animation-name:u2;transform-origin:764.9px 0}@keyframes u3{71.49%{transform:scale(0.000,1)}71.51%,72.94%{transform:scale(0.333,1)}72.96%,74.87%{transform:scale(0.667,1)}74.89%,100%{transform:scale(1.000,1)}}.u.u3{fill:var(--c4);animation-name:u3;transform-origin:798.1px 0}.s{shape-rendering:geometricPrecision;fill:var(--cs);animation:none linear 20700ms infinite}@keyframes s0{0%,99.52%{transform:translate(0px,-16px)}1.93%{transform:translate(0px,48px)}2.9%{transform:translate(32px,48px)}4.35%{transform:translate(32px,0px)}5.31%,97.1%{transform:translate(64px,0px)}7.25%{transform:translate(64px,64px)}7.73%{transform:translate(80px,64px)}8.21%{transform:translate(80px,80px)}10.14%{transform:translate(16px,80px)}10.63%{transform:translate(16px,96px)}17.39%{transform:translate(240px,96px)}17.87%{transform:translate(240px,80px)}21.74%{transform:translate(368px,80px)}23.19%{transform:translate(368px,32px)}25.6%{transform:translate(448px,32px)}26.09%{transform:translate(448px,48px)}28.02%{transform:translate(512px,48px)}28.99%{transform:translate(512px,16px)}29.47%{transform:translate(496px,16px)}29.95%{transform:translate(496px,0px)}37.2%,65.22%{transform:translate(736px,0px)}38.65%{transform:translate(736px,48px)}39.13%{transform:translate(720px,48px)}40.1%{transform:translate(720px,80px)}41.06%{transform:translate(752px,80px)}41.55%{transform:translate(752px,64px)}42.03%{transform:translate(768px,64px)}42.51%{transform:translate(768px,48px)}43.48%,54.11%{transform:translate(800px,48px)}43.96%{transform:translate(800px,32px)}44.44%,52.17%{transform:translate(816px,32px)}44.93%{transform:translate(816px,16px)}45.41%{transform:translate(832px,16px)}46.38%{transform:translate(832px,-16px)}47.83%{transform:translate(784px,-16px)}48.31%,70.53%{transform:translate(784px,0px)}48.79%,66.18%{transform:translate(768px,0px)}49.28%{transform:translate(768px,-16px)}50.72%{transform:translate(816px,-16px)}53.14%{transform:translate(784px,32px)}53.62%,69.08%{transform:translate(784px,48px)}54.59%{transform:translate(800px,64px)}55.07%{transform:translate(816px,64px)}56.04%{transform:translate(816px,96px)}60.39%{transform:translate(672px,96px)}62.8%{transform:translate(672px,16px)}64.73%{transform:translate(736px,16px)}66.67%,72.46%{transform:translate(768px,16px)}67.15%{transform:translate(752px,16px)}68.12%{transform:translate(752px,48px)}71.01%{transform:translate(800px,0px)}71.5%{transform:translate(800px,16px)}72.95%{transform:translate(768px,32px)}73.91%{transform:translate(736px,32px)}74.88%{transform:translate(736px,64px)}93.72%{transform:translate(112px,64px)}95.17%{transform:translate(112px,16px)}95.65%{transform:translate(96px,16px)}96.14%{transform:translate(96px,0px)}97.58%{transform:translate(64px,-16px)}}.s.s0{transform:translate(0px,-16px);animation-name:s0}@keyframes s1{0%,99.52%{transform:translate(16px,-16px)}0.48%{transform:translate(0px,-16px)}2.42%{transform:translate(0px,48px)}3.38%{transform:translate(32px,48px)}4.83%{transform:translate(32px,0px)}5.8%,97.58%{transform:translate(64px,0px)}7.73%{transform:translate(64px,64px)}8.21%{transform:translate(80px,64px)}8.7%{transform:translate(80px,80px)}10.63%{transform:translate(16px,80px)}11.11%{transform:translate(16px,96px)}17.87%{transform:translate(240px,96px)}18.36%{transform:translate(240px,80px)}22.22%{transform:translate(368px,80px)}23.67%{transform:translate(368px,32px)}26.09%{transform:translate(448px,32px)}26.57%{transform:translate(448px,48px)}28.5%{transform:translate(512px,48px)}29.47%{transform:translate(512px,16px)}29.95%{transform:translate(496px,16px)}30.43%{transform:translate(496px,0px)}37.68%,65.7%{transform:translate(736px,0px)}39.13%{transform:translate(736px,48px)}39.61%{transform:translate(720px,48px)}40.58%{transform:translate(720px,80px)}41.55%{transform:translate(752px,80px)}42.03%{transform:translate(752px,64px)}42.51%{transform:translate(768px,64px)}43%{transform:translate(768px,48px)}43.96%,54.59%{transform:translate(800px,48px)}44.44%{transform:translate(800px,32px)}44.93%,52.66%{transform:translate(816px,32px)}45.41%{transform:translate(816px,16px)}45.89%{transform:translate(832px,16px)}46.86%{transform:translate(832px,-16px)}48.31%{transform:translate(784px,-16px)}48.79%,71.01%{transform:translate(784px,0px)}49.28%,66.67%{transform:translate(768px,0px)}49.76%{transform:translate(768px,-16px)}51.21%{transform:translate(816px,-16px)}53.62%{transform:translate(784px,32px)}54.11%,69.57%{transform:translate(784px,48px)}55.07%{transform:translate(800px,64px)}55.56%{transform:translate(816px,64px)}56.52%{transform:translate(816px,96px)}60.87%{transform:translate(672px,96px)}63.29%{transform:translate(672px,16px)}65.22%{transform:translate(736px,16px)}67.15%,72.95%{transform:translate(768px,16px)}67.63%{transform:translate(752px,16px)}68.6%{transform:translate(752px,48px)}71.5%{transform:translate(800px,0px)}71.98%{transform:translate(800px,16px)}73.43%{transform:translate(768px,32px)}74.4%{transform:translate(736px,32px)}75.36%{transform:translate(736px,64px)}94.2%{transform:translate(112px,64px)}95.65%{transform:translate(112px,16px)}96.14%{transform:translate(96px,16px)}96.62%{transform:translate(96px,0px)}98.07%{transform:translate(64px,-16px)}}.s.s1{transform:translate(16px,-16px);animation-name:s1}@keyframes s2{0%,99.52%{transform:translate(32px,-16px)}0.97%{transform:translate(0px,-16px)}2.9%{transform:translate(0px,48px)}3.86%{transform:translate(32px,48px)}5.31%{transform:translate(32px,0px)}6.28%,98.07%{transform:translate(64px,0px)}8.21%{transform:translate(64px,64px)}8.7%{transform:translate(80px,64px)}9.18%{transform:translate(80px,80px)}11.11%{transform:translate(16px,80px)}11.59%{transform:translate(16px,96px)}18.36%{transform:translate(240px,96px)}18.84%{transform:translate(240px,80px)}22.71%{transform:translate(368px,80px)}24.15%{transform:translate(368px,32px)}26.57%{transform:translate(448px,32px)}27.05%{transform:translate(448px,48px)}28.99%{transform:translate(512px,48px)}29.95%{transform:translate(512px,16px)}30.43%{transform:translate(496px,16px)}30.92%{transform:translate(496px,0px)}38.16%,66.18%{transform:translate(736px,0px)}39.61%{transform:translate(736px,48px)}40.1%{transform:translate(720px,48px)}41.06%{transform:translate(720px,80px)}42.03%{transform:translate(752px,80px)}42.51%{transform:translate(752px,64px)}43%{transform:translate(768px,64px)}43.48%{transform:translate(768px,48px)}44.44%,55.07%{transform:translate(800px,48px)}44.93%{transform:translate(800px,32px)}45.41%,53.14%{transform:translate(816px,32px)}45.89%{transform:translate(816px,16px)}46.38%{transform:translate(832px,16px)}47.34%{transform:translate(832px,-16px)}48.79%{transform:translate(784px,-16px)}49.28%,71.5%{transform:translate(784px,0px)}49.76%,67.15%{transform:translate(768px,0px)}50.24%{transform:translate(768px,-16px)}51.69%{transform:translate(816px,-16px)}54.11%{transform:translate(784px,32px)}54.59%,70.05%{transform:translate(784px,48px)}55.56%{transform:translate(800px,64px)}56.04%{transform:translate(816px,64px)}57%{transform:translate(816px,96px)}61.35%{transform:translate(672px,96px)}63.77%{transform:translate(672px,16px)}65.7%{transform:translate(736px,16px)}67.63%,73.43%{transform:translate(768px,16px)}68.12%{transform:translate(752px,16px)}69.08%{transform:translate(752px,48px)}71.98%{transform:translate(800px,0px)}72.46%{transform:translate(800px,16px)}73.91%{transform:translate(768px,32px)}74.88%{transform:translate(736px,32px)}75.85%{transform:translate(736px,64px)}94.69%{transform:translate(112px,64px)}96.14%{transform:translate(112px,16px)}96.62%{transform:translate(96px,16px)}97.1%{transform:translate(96px,0px)}98.55%{transform:translate(64px,-16px)}}.s.s2{transform:translate(32px,-16px);animation-name:s2}@keyframes s3{0%,99.52%{transform:translate(48px,-16px)}1.45%{transform:translate(0px,-16px)}3.38%{transform:translate(0px,48px)}4.35%{transform:translate(32px,48px)}5.8%{transform:translate(32px,0px)}6.76%,98.55%{transform:translate(64px,0px)}8.7%{transform:translate(64px,64px)}9.18%{transform:translate(80px,64px)}9.66%{transform:translate(80px,80px)}11.59%{transform:translate(16px,80px)}12.08%{transform:translate(16px,96px)}18.84%{transform:translate(240px,96px)}19.32%{transform:translate(240px,80px)}23.19%{transform:translate(368px,80px)}24.64%{transform:translate(368px,32px)}27.05%{transform:translate(448px,32px)}27.54%{transform:translate(448px,48px)}29.47%{transform:translate(512px,48px)}30.43%{transform:translate(512px,16px)}30.92%{transform:translate(496px,16px)}31.4%{transform:translate(496px,0px)}38.65%,66.67%{transform:translate(736px,0px)}40.1%{transform:translate(736px,48px)}40.58%{transform:translate(720px,48px)}41.55%{transform:translate(720px,80px)}42.51%{transform:translate(752px,80px)}43%{transform:translate(752px,64px)}43.48%{transform:translate(768px,64px)}43.96%{transform:translate(768px,48px)}44.93%,55.56%{transform:translate(800px,48px)}45.41%{transform:translate(800px,32px)}45.89%,53.62%{transform:translate(816px,32px)}46.38%{transform:translate(816px,16px)}46.86%{transform:translate(832px,16px)}47.83%{transform:translate(832px,-16px)}49.28%{transform:translate(784px,-16px)}49.76%,71.98%{transform:translate(784px,0px)}50.24%,67.63%{transform:translate(768px,0px)}50.72%{transform:translate(768px,-16px)}52.17%{transform:translate(816px,-16px)}54.59%{transform:translate(784px,32px)}55.07%,70.53%{transform:translate(784px,48px)}56.04%{transform:translate(800px,64px)}56.52%{transform:translate(816px,64px)}57.49%{transform:translate(816px,96px)}61.84%{transform:translate(672px,96px)}64.25%{transform:translate(672px,16px)}66.18%{transform:translate(736px,16px)}68.12%,73.91%{transform:translate(768px,16px)}68.6%{transform:translate(752px,16px)}69.57%{transform:translate(752px,48px)}72.46%{transform:translate(800px,0px)}72.95%{transform:translate(800px,16px)}74.4%{transform:translate(768px,32px)}75.36%{transform:translate(736px,32px)}76.33%{transform:translate(736px,64px)}95.17%{transform:translate(112px,64px)}96.62%{transform:translate(112px,16px)}97.1%{transform:translate(96px,16px)}97.58%{transform:translate(96px,0px)}99.03%{transform:translate(64px,-16px)}}.s.s3{transform:translate(48px,-16px);animation-name:s3}</style><rect class="c" x="2" y="2" rx="2" ry="2"/><rect class="c c0" x="2" y="18" rx="2" ry="2"/><rect class="c c1" x="2" y="34" rx="2" ry="2"/><rect class="c c2" x="2" y="50" rx="2" ry="2"/><rect class="c" x="2" y="66" rx="2" ry="2"/><rect class="c" x="2" y="82" rx="2" ry="2"/><rect class="c" x="2" y="98" rx="2" ry="2"/><rect class="c" x="18" y="2" rx="2" ry="2"/><rect class="c" x="18" y="18" rx="2" ry="2"/><rect class="c" x="18" y="34" rx="2" ry="2"/><rect class="c" x="18" y="50" rx="2" ry="2"/><rect class="c" x="18" y="66" rx="2" ry="2"/><rect class="c" x="18" y="82" rx="2" ry="2"/><rect class="c c3" x="18" y="98" rx="2" ry="2"/><rect class="c c4" x="34" y="2" rx="2" ry="2"/><rect class="c c5" x="34" y="18" rx="2" ry="2"/><rect class="c" x="34" y="34" rx="2" ry="2"/><rect class="c" x="34" y="50" rx="2" ry="2"/><rect class="c" x="34" y="66" rx="2" ry="2"/><rect class="c" x="34" y="82" rx="2" ry="2"/><rect class="c" x="34" y="98" rx="2" ry="2"/><rect class="c" x="50" y="2" rx="2" ry="2"/><rect class="c" x="50" y="18" rx="2" ry="2"/><rect class="c" x="50" y="34" rx="2" ry="2"/><rect class="c" x="50" y="50" rx="2" ry="2"/><rect class="c" x="50" y="66" rx="2" ry="2"/><rect class="c" x="50" y="82" rx="2" ry="2"/><rect class="c" x="50" y="98" rx="2" ry="2"/><rect class="c" x="66" y="2" rx="2" ry="2"/><rect class="c" x="66" y="18" rx="2" ry="2"/><rect class="c" x="66" y="34" rx="2" ry="2"/><rect class="c" x="66" y="50" rx="2" ry="2"/><rect class="c c6" x="66" y="66" rx="2" ry="2"/><rect class="c" x="66" y="82" rx="2" ry="2"/><rect class="c" x="66" y="98" rx="2" ry="2"/><rect class="c" x="82" y="2" rx="2" ry="2"/><rect class="c" x="82" y="18" rx="2" ry="2"/><rect class="c" x="82" y="34" rx="2" ry="2"/><rect class="c" x="82" y="50" rx="2" ry="2"/><rect class="c" x="82" y="66" rx="2" ry="2"/><rect class="c c7" x="82" y="82" rx="2" ry="2"/><rect class="c" x="82" y="98" rx="2" ry="2"/><rect class="c" x="98" y="2" rx="2" ry="2"/><rect class="c" x="98" y="18" rx="2" ry="2"/><rect class="c" x="98" y="34" rx="2" ry="2"/><rect class="c" x="98" y="50" rx="2" ry="2"/><rect class="c" x="98" y="66" rx="2" ry="2"/><rect class="c" x="98" y="82" rx="2" ry="2"/><rect class="c" x="98" y="98" rx="2" ry="2"/><rect class="c" x="114" y="2" rx="2" ry="2"/><rect class="c" x="114" y="18" rx="2" ry="2"/><rect class="c" x="114" y="34" rx="2" ry="2"/><rect class="c" x="114" y="50" rx="2" ry="2"/><rect class="c" x="114" y="66" rx="2" ry="2"/><rect class="c" x="114" y="82" rx="2" ry="2"/><rect class="c" x="114" y="98" rx="2" ry="2"/><rect class="c" x="130" y="2" rx="2" ry="2"/><rect class="c" x="130" y="18" rx="2" ry="2"/><rect class="c" x="130" y="34" rx="2" ry="2"/><rect class="c" x="130" y="50" rx="2" ry="2"/><rect class="c" x="130" y="66" rx="2" ry="2"/><rect class="c" x="130" y="82" rx="2" ry="2"/><rect class="c" x="130" y="98" rx="2" ry="2"/><rect class="c" x="146" y="2" rx="2" ry="2"/><rect class="c" x="146" y="18" rx="2" ry="2"/><rect class="c" x="146" y="34" rx="2" ry="2"/><rect class="c" x="146" y="50" rx="2" ry="2"/><rect class="c" x="146" y="66" rx="2" ry="2"/><rect class="c" x="146" y="82" rx="2" ry="2"/><rect class="c" x="146" y="98" rx="2" ry="2"/><rect class="c" x="162" y="2" rx="2" ry="2"/><rect class="c" x="162" y="18" rx="2" ry="2"/><rect class="c" x="162" y="34" rx="2" ry="2"/><rect class="c" x="162" y="50" rx="2" ry="2"/><rect class="c" x="162" y="66" rx="2" ry="2"/><rect class="c" x="162" y="82" rx="2" ry="2"/><rect class="c" x="162" y="98" rx="2" ry="2"/><rect class="c" x="178" y="2" rx="2" ry="2"/><rect class="c" x="178" y="18" rx="2" ry="2"/><rect class="c" x="178" y="34" rx="2" ry="2"/><rect class="c" x="178" y="50" rx="2" ry="2"/><rect class="c" x="178" y="66" rx="2" ry="2"/><rect class="c" x="178" y="82" rx="2" ry="2"/><rect class="c" x="178" y="98" rx="2" ry="2"/><rect class="c" x="194" y="2" rx="2" ry="2"/><rect class="c" x="194" y="18" rx="2" ry="2"/><rect class="c" x="194" y="34" rx="2" ry="2"/><rect class="c" x="194" y="50" rx="2" ry="2"/><rect class="c" x="194" y="66" rx="2" ry="2"/><rect class="c" x="194" y="82" rx="2" ry="2"/><rect class="c" x="194" y="98" rx="2" ry="2"/><rect class="c" x="210" y="2" rx="2" ry="2"/><rect class="c" x="210" y="18" rx="2" ry="2"/><rect class="c" x="210" y="34" rx="2" ry="2"/><rect class="c" x="210" y="50" rx="2" ry="2"/><rect class="c" x="210" y="66" rx="2" ry="2"/><rect class="c" x="210" y="82" rx="2" ry="2"/><rect class="c" x="210" y="98" rx="2" ry="2"/><rect class="c" x="226" y="2" rx="2" ry="2"/><rect class="c" x="226" y="18" rx="2" ry="2"/><rect class="c" x="226" y="34" rx="2" ry="2"/><rect class="c" x="226" y="50" rx="2" ry="2"/><rect class="c" x="226" y="66" rx="2" ry="2"/><rect class="c" x="226" y="82" rx="2" ry="2"/><rect class="c" x="226" y="98" rx="2" ry="2"/><rect class="c" x="242" y="2" rx="2" ry="2"/><rect class="c" x="242" y="18" rx="2" ry="2"/><rect class="c" x="242" y="34" rx="2" ry="2"/><rect class="c" x="242" y="50" rx="2" ry="2"/><rect class="c" x="242" y="66" rx="2" ry="2"/><rect class="c c8" x="242" y="82" rx="2" ry="2"/><rect class="c" x="242" y="98" rx="2" ry="2"/><rect class="c" x="258" y="2" rx="2" ry="2"/><rect class="c" x="258" y="18" rx="2" ry="2"/><rect class="c" x="258" y="34" rx="2" ry="2"/><rect class="c" x="258" y="50" rx="2" ry="2"/><rect class="c" x="258" y="66" rx="2" ry="2"/><rect class="c" x="258" y="82" rx="2" ry="2"/><rect class="c" x="258" y="98" rx="2" ry="2"/><rect class="c" x="274" y="2" rx="2" ry="2"/><rect class="c" x="274" y="18" rx="2" ry="2"/><rect class="c" x="274" y="34" rx="2" ry="2"/><rect class="c" x="274" y="50" rx="2" ry="2"/><rect class="c" x="274" y="66" rx="2" ry="2"/><rect class="c c9" x="274" y="82" rx="2" ry="2"/><rect class="c" x="274" y="98" rx="2" ry="2"/><rect class="c" x="290" y="2" rx="2" ry="2"/><rect class="c" x="290" y="18" rx="2" ry="2"/><rect class="c" x="290" y="34" rx="2" ry="2"/><rect class="c" x="290" y="50" rx="2" ry="2"/><rect class="c" x="290" y="66" rx="2" ry="2"/><rect class="c" x="290" y="82" rx="2" ry="2"/><rect class="c" x="290" y="98" rx="2" ry="2"/><rect class="c" x="306" y="2" rx="2" ry="2"/><rect class="c" x="306" y="18" rx="2" ry="2"/><rect class="c" x="306" y="34" rx="2" ry="2"/><rect class="c" x="306" y="50" rx="2" ry="2"/><rect class="c" x="306" y="66" rx="2" ry="2"/><rect class="c" x="306" y="82" rx="2" ry="2"/><rect class="c" x="306" y="98" rx="2" ry="2"/><rect class="c" x="322" y="2" rx="2" ry="2"/><rect class="c" x="322" y="18" rx="2" ry="2"/><rect class="c" x="322" y="34" rx="2" ry="2"/><rect class="c" x="322" y="50" rx="2" ry="2"/><rect class="c" x="322" y="66" rx="2" ry="2"/><rect class="c ca" x="322" y="82" rx="2" ry="2"/><rect class="c" x="322" y="98" rx="2" ry="2"/><rect class="c" x="338" y="2" rx="2" ry="2"/><rect class="c" x="338" y="18" rx="2" ry="2"/><rect class="c" x="338" y="34" rx="2" ry="2"/><rect class="c" x="338" y="50" rx="2" ry="2"/><rect class="c" x="338" y="66" rx="2" ry="2"/><rect class="c cb" x="338" y="82" rx="2" ry="2"/><rect class="c" x="338" y="98" rx="2" ry="2"/><rect class="c" x="354" y="2" rx="2" ry="2"/><rect class="c" x="354" y="18" rx="2" ry="2"/><rect class="c" x="354" y="34" rx="2" ry="2"/><rect class="c" x="354" y="50" rx="2" ry="2"/><rect class="c" x="354" y="66" rx="2" ry="2"/><rect class="c" x="354" y="82" rx="2" ry="2"/><rect class="c" x="354" y="98" rx="2" ry="2"/><rect class="c" x="370" y="2" rx="2" ry="2"/><rect class="c" x="370" y="18" rx="2" ry="2"/><rect class="c cc" x="370" y="34" rx="2" ry="2"/><rect class="c" x="370" y="50" rx="2" ry="2"/><rect class="c" x="370" y="66" rx="2" ry="2"/><rect class="c" x="370" y="82" rx="2" ry="2"/><rect class="c" x="370" y="98" rx="2" ry="2"/><rect class="c" x="386" y="2" rx="2" ry="2"/><rect class="c" x="386" y="18" rx="2" ry="2"/><rect class="c" x="386" y="34" rx="2" ry="2"/><rect class="c" x="386" y="50" rx="2" ry="2"/><rect class="c" x="386" y="66" rx="2" ry="2"/><rect class="c" x="386" y="82" rx="2" ry="2"/><rect class="c" x="386" y="98" rx="2" ry="2"/><rect class="c" x="402" y="2" rx="2" ry="2"/><rect class="c" x="402" y="18" rx="2" ry="2"/><rect class="c" x="402" y="34" rx="2" ry="2"/><rect class="c" x="402" y="50" rx="2" ry="2"/><rect class="c" x="402" y="66" rx="2" ry="2"/><rect class="c" x="402" y="82" rx="2" ry="2"/><rect class="c" x="402" y="98" rx="2" ry="2"/><rect class="c" x="418" y="2" rx="2" ry="2"/><rect class="c" x="418" y="18" rx="2" ry="2"/><rect class="c" x="418" y="34" rx="2" ry="2"/><rect class="c" x="418" y="50" rx="2" ry="2"/><rect class="c" x="418" y="66" rx="2" ry="2"/><rect class="c" x="418" y="82" rx="2" ry="2"/><rect class="c" x="418" y="98" rx="2" ry="2"/><rect class="c" x="434" y="2" rx="2" ry="2"/><rect class="c" x="434" y="18" rx="2" ry="2"/><rect class="c" x="434" y="34" rx="2" ry="2"/><rect class="c" x="434" y="50" rx="2" ry="2"/><rect class="c" x="434" y="66" rx="2" ry="2"/><rect class="c" x="434" y="82" rx="2" ry="2"/><rect class="c" x="434" y="98" rx="2" ry="2"/><rect class="c" x="450" y="2" rx="2" ry="2"/><rect class="c" x="450" y="18" rx="2" ry="2"/><rect class="c" x="450" y="34" rx="2" ry="2"/><rect class="c cd" x="450" y="50" rx="2" ry="2"/><rect class="c" x="450" y="66" rx="2" ry="2"/><rect class="c" x="450" y="82" rx="2" ry="2"/><rect class="c" x="450" y="98" rx="2" ry="2"/><rect class="c" x="466" y="2" rx="2" ry="2"/><rect class="c" x="466" y="18" rx="2" ry="2"/><rect class="c" x="466" y="34" rx="2" ry="2"/><rect class="c ce" x="466" y="50" rx="2" ry="2"/><rect class="c" x="466" y="66" rx="2" ry="2"/><rect class="c" x="466" y="82" rx="2" ry="2"/><rect class="c" x="466" y="98" rx="2" ry="2"/><rect class="c" x="482" y="2" rx="2" ry="2"/><rect class="c" x="482" y="18" rx="2" ry="2"/><rect class="c" x="482" y="34" rx="2" ry="2"/><rect class="c" x="482" y="50" rx="2" ry="2"/><rect class="c" x="482" y="66" rx="2" ry="2"/><rect class="c" x="482" y="82" rx="2" ry="2"/><rect class="c" x="482" y="98" rx="2" ry="2"/><rect class="c" x="498" y="2" rx="2" ry="2"/><rect class="c cf" x="498" y="18" rx="2" ry="2"/><rect class="c" x="498" y="34" rx="2" ry="2"/><rect class="c" x="498" y="50" rx="2" ry="2"/><rect class="c" x="498" y="66" rx="2" ry="2"/><rect class="c" x="498" y="82" rx="2" ry="2"/><rect class="c" x="498" y="98" rx="2" ry="2"/><rect class="c" x="514" y="2" rx="2" ry="2"/><rect class="c cg" x="514" y="18" rx="2" ry="2"/><rect class="c ch" x="514" y="34" rx="2" ry="2"/><rect class="c" x="514" y="50" rx="2" ry="2"/><rect class="c" x="514" y="66" rx="2" ry="2"/><rect class="c" x="514" y="82" rx="2" ry="2"/><rect class="c" x="514" y="98" rx="2" ry="2"/><rect class="c" x="530" y="2" rx="2" ry="2"/><rect class="c" x="530" y="18" rx="2" ry="2"/><rect class="c" x="530" y="34" rx="2" ry="2"/><rect class="c" x="530" y="50" rx="2" ry="2"/><rect class="c" x="530" y="66" rx="2" ry="2"/><rect class="c" x="530" y="82" rx="2" ry="2"/><rect class="c" x="530" y="98" rx="2" ry="2"/><rect class="c" x="546" y="2" rx="2" ry="2"/><rect class="c" x="546" y="18" rx="2" ry="2"/><rect class="c" x="546" y="34" rx="2" ry="2"/><rect class="c" x="546" y="50" rx="2" ry="2"/><rect class="c" x="546" y="66" rx="2" ry="2"/><rect class="c" x="546" y="82" rx="2" ry="2"/><rect class="c" x="546" y="98" rx="2" ry="2"/><rect class="c" x="562" y="2" rx="2" ry="2"/><rect class="c" x="562" y="18" rx="2" ry="2"/><rect class="c" x="562" y="34" rx="2" ry="2"/><rect class="c" x="562" y="50" rx="2" ry="2"/><rect class="c" x="562" y="66" rx="2" ry="2"/><rect class="c" x="562" y="82" rx="2" ry="2"/><rect class="c" x="562" y="98" rx="2" ry="2"/><rect class="c" x="578" y="2" rx="2" ry="2"/><rect class="c" x="578" y="18" rx="2" ry="2"/><rect class="c" x="578" y="34" rx="2" ry="2"/><rect class="c" x="578" y="50" rx="2" ry="2"/><rect class="c" x="578" y="66" rx="2" ry="2"/><rect class="c" x="578" y="82" rx="2" ry="2"/><rect class="c" x="578" y="98" rx="2" ry="2"/><rect class="c" x="594" y="2" rx="2" ry="2"/><rect class="c" x="594" y="18" rx="2" ry="2"/><rect class="c" x="594" y="34" rx="2" ry="2"/><rect class="c" x="594" y="50" rx="2" ry="2"/><rect class="c" x="594" y="66" rx="2" ry="2"/><rect class="c" x="594" y="82" rx="2" ry="2"/><rect class="c" x="594" y="98" rx="2" ry="2"/><rect class="c" x="610" y="2" rx="2" ry="2"/><rect class="c" x="610" y="18" rx="2" ry="2"/><rect class="c" x="610" y="34" rx="2" ry="2"/><rect class="c" x="610" y="50" rx="2" ry="2"/><rect class="c" x="610" y="66" rx="2" ry="2"/><rect class="c" x="610" y="82" rx="2" ry="2"/><rect class="c" x="610" y="98" rx="2" ry="2"/><rect class="c" x="626" y="2" rx="2" ry="2"/><rect class="c" x="626" y="18" rx="2" ry="2"/><rect class="c" x="626" y="34" rx="2" ry="2"/><rect class="c" x="626" y="50" rx="2" ry="2"/><rect class="c" x="626" y="66" rx="2" ry="2"/><rect class="c" x="626" y="82" rx="2" ry="2"/><rect class="c" x="626" y="98" rx="2" ry="2"/><rect class="c" x="642" y="2" rx="2" ry="2"/><rect class="c" x="642" y="18" rx="2" ry="2"/><rect class="c" x="642" y="34" rx="2" ry="2"/><rect class="c" x="642" y="50" rx="2" ry="2"/><rect class="c" x="642" y="66" rx="2" ry="2"/><rect class="c" x="642" y="82" rx="2" ry="2"/><rect class="c" x="642" y="98" rx="2" ry="2"/><rect class="c" x="658" y="2" rx="2" ry="2"/><rect class="c" x="658" y="18" rx="2" ry="2"/><rect class="c" x="658" y="34" rx="2" ry="2"/><rect class="c" x="658" y="50" rx="2" ry="2"/><rect class="c" x="658" y="66" rx="2" ry="2"/><rect class="c" x="658" y="82" rx="2" ry="2"/><rect class="c" x="658" y="98" rx="2" ry="2"/><rect class="c" x="674" y="2" rx="2" ry="2"/><rect class="c" x="674" y="18" rx="2" ry="2"/><rect class="c" x="674" y="34" rx="2" ry="2"/><rect class="c" x="674" y="50" rx="2" ry="2"/><rect class="c" x="674" y="66" rx="2" ry="2"/><rect class="c" x="674" y="82" rx="2" ry="2"/><rect class="c ci" x="674" y="98" rx="2" ry="2"/><rect class="c" x="690" y="2" rx="2" ry="2"/><rect class="c" x="690" y="18" rx="2" ry="2"/><rect class="c" x="690" y="34" rx="2" ry="2"/><rect class="c" x="690" y="50" rx="2" ry="2"/><rect class="c" x="690" y="66" rx="2" ry="2"/><rect class="c" x="690" y="82" rx="2" ry="2"/><rect class="c" x="690" y="98" rx="2" ry="2"/><rect class="c" x="706" y="2" rx="2" ry="2"/><rect class="c" x="706" y="18" rx="2" ry="2"/><rect class="c" x="706" y="34" rx="2" ry="2"/><rect class="c" x="706" y="50" rx="2" ry="2"/><rect class="c" x="706" y="66" rx="2" ry="2"/><rect class="c" x="706" y="82" rx="2" ry="2"/><rect class="c" x="706" y="98" rx="2" ry="2"/><rect class="c" x="722" y="2" rx="2" ry="2"/><rect class="c" x="722" y="18" rx="2" ry="2"/><rect class="c" x="722" y="34" rx="2" ry="2"/><rect class="c" x="722" y="50" rx="2" ry="2"/><rect class="c" x="722" y="66" rx="2" ry="2"/><rect class="c" x="722" y="82" rx="2" ry="2"/><rect class="c" x="722" y="98" rx="2" ry="2"/><rect class="c cj" x="738" y="2" rx="2" ry="2"/><rect class="c ck" x="738" y="18" rx="2" ry="2"/><rect class="c cl" x="738" y="34" rx="2" ry="2"/><rect class="c cm" x="738" y="50" rx="2" ry="2"/><rect class="c cn" x="738" y="66" rx="2" ry="2"/><rect class="c" x="738" y="82" rx="2" ry="2"/><rect class="c co" x="738" y="98" rx="2" ry="2"/><rect class="c" x="754" y="2" rx="2" ry="2"/><rect class="c cp" x="754" y="18" rx="2" ry="2"/><rect class="c cq" x="754" y="34" rx="2" ry="2"/><rect class="c cr" x="754" y="50" rx="2" ry="2"/><rect class="c cs" x="754" y="66" rx="2" ry="2"/><rect class="c ct" x="754" y="82" rx="2" ry="2"/><rect class="c cu" x="754" y="98" rx="2" ry="2"/><rect class="c cv" x="770" y="2" rx="2" ry="2"/><rect class="c cw" x="770" y="18" rx="2" ry="2"/><rect class="c cx" x="770" y="34" rx="2" ry="2"/><rect class="c cy" x="770" y="50" rx="2" ry="2"/><rect class="c" x="770" y="66" rx="2" ry="2"/><rect class="c" x="770" y="82" rx="2" ry="2"/><rect class="c" x="770" y="98" rx="2" ry="2"/><rect class="c cz" x="786" y="2" rx="2" ry="2"/><rect class="c c10" x="786" y="18" rx="2" ry="2"/><rect class="c c11" x="786" y="34" rx="2" ry="2"/><rect class="c c12" x="786" y="50" rx="2" ry="2"/><rect class="c" x="786" y="66" rx="2" ry="2"/><rect class="c" x="786" y="82" rx="2" ry="2"/><rect class="c" x="786" y="98" rx="2" ry="2"/><rect class="c c13" x="802" y="2" rx="2" ry="2"/><rect class="c c14" x="802" y="18" rx="2" ry="2"/><rect class="c c15" x="802" y="34" rx="2" ry="2"/><rect class="c c16" x="802" y="50" rx="2" ry="2"/><rect class="c c17" x="802" y="66" rx="2" ry="2"/><rect class="c" x="802" y="82" rx="2" ry="2"/><rect class="c c18" x="802" y="98" rx="2" ry="2"/><rect class="c" x="818" y="2" rx="2" ry="2"/><rect class="c c19" x="818" y="18" rx="2" ry="2"/><rect class="c c1a" x="818" y="34" rx="2" ry="2"/><rect class="c" x="818" y="50" rx="2" ry="2"/><rect class="c c1b" x="818" y="66" rx="2" ry="2"/><rect class="c c1c" x="818" y="82" rx="2" ry="2"/><rect class="c c1d" x="818" y="98" rx="2" ry="2"/><rect class="c c1e" x="834" y="2" rx="2" ry="2"/><rect class="c" x="834" y="18" rx="2" ry="2"/><rect class="u u0" height="12" width="715.6" x="0.0" y="144"/><rect class="u u1" height="12" width="50.5" x="715.0" y="144"/><rect class="u u2" height="12" width="33.9" x="764.9" y="144"/><rect class="u u3" height="12" width="50.5" x="798.1" y="144"/><rect class="s s0" x="0.8" y="0.8" width="14.4" height="14.4" rx="4.5" ry="4.5"/><rect class="s s1" x="1.8" y="1.8" width="12.3" height="12.3" rx="4.1" ry="4.1"/><rect class="s s2" x="2.6" y="2.6" width="10.8" height="10.8" rx="3.6" ry="3.6"/><rect class="s s3" x="3.0" y="3.0" width="9.9" height="9.9" rx="3.3" ry="3.3"/></svg>